<svg width="540" height="402" viewBox="0 0 540 402" fill="none" xmlns="http://www.w3.org/2000/svg">
<path d="M540 353.271H0V353.541H540V353.271Z" fill="#EBEBEB"/>
<path d="M485.892 370.633H450.123V370.903H485.892V370.633Z" fill="#EBEBEB"/>
<path d="M357.718 373.568H348.333V373.838H357.718V373.568Z" fill="#EBEBEB"/>
<path d="M449.043 360.62H428.317V360.89H449.043V360.62Z" fill="#EBEBEB"/>
<path d="M103.302 362.432H56.6567V362.702H103.302V362.432Z" fill="#EBEBEB"/>
<path d="M119.761 362.432H112.925V362.702H119.761V362.432Z" fill="#EBEBEB"/>
<path d="M243.162 366.986H141.988V367.256H243.162V366.986Z" fill="#EBEBEB"/>
<path d="M255.96 305.147H47.4228C45.7892 305.144 44.2234 304.494 43.0692 303.339C41.9151 302.184 41.2668 300.618 41.2668 298.986V6.10726C41.2811 4.48444 41.9356 2.93276 43.0882 1.78925C44.2408 0.645749 45.7985 0.00277998 47.4228 0H255.96C257.596 0 259.164 0.649126 260.321 1.80458C261.477 2.96003 262.127 4.52715 262.127 6.16121V298.986C262.127 300.62 261.477 302.187 260.321 303.343C259.164 304.498 257.596 305.147 255.96 305.147ZM47.4228 0.215805C45.8608 0.218663 44.3637 0.840628 43.2602 1.94518C42.1566 3.04973 41.5368 4.54662 41.5368 6.10726V298.986C41.5368 300.547 42.1566 302.043 43.2602 303.148C44.3637 304.253 45.8608 304.874 47.4228 304.877H255.96C257.523 304.874 259.021 304.253 260.127 303.149C261.232 302.044 261.854 300.548 261.857 298.986V6.10726C261.854 4.54562 261.232 3.04877 260.127 1.94452C259.021 0.840277 257.523 0.218657 255.96 0.215805H47.4228Z" fill="#EBEBEB"/>
<path d="M489.575 305.147H281.027C279.392 305.144 277.825 304.494 276.669 303.339C275.513 302.185 274.863 300.619 274.86 298.986V6.10726C274.877 4.48345 275.534 2.93178 276.688 1.78858C277.843 0.645372 279.401 0.00274966 281.027 0H489.575C491.197 0.00561576 492.752 0.649839 493.902 1.79304C495.053 2.93624 495.706 4.4863 495.72 6.10726V298.986C495.72 300.616 495.073 302.18 493.921 303.335C492.769 304.49 491.206 305.141 489.575 305.147ZM281.027 0.215805C279.464 0.218657 277.965 0.840277 276.86 1.94452C275.755 3.04877 275.133 4.54562 275.13 6.10726V298.986C275.133 300.548 275.755 302.044 276.86 303.149C277.965 304.253 279.464 304.874 281.027 304.877H489.575C491.138 304.874 492.636 304.253 493.741 303.149C494.846 302.044 495.469 300.548 495.471 298.986V6.10726C495.469 4.54562 494.846 3.04877 493.741 1.94452C492.636 0.840277 491.138 0.218657 489.575 0.215805H281.027Z" fill="#EBEBEB"/>
<path d="M482.306 332.91H335.988C334.568 332.91 333.417 334.06 333.417 335.478V350.844C333.417 352.262 334.568 353.412 335.988 353.412H482.306C483.726 353.412 484.877 352.262 484.877 350.844V335.478C484.877 334.06 483.726 332.91 482.306 332.91Z" fill="#E0E0E0"/>
<path d="M352.393 338.435H338.353C337.978 338.435 337.618 338.286 337.353 338.021C337.088 337.756 336.938 337.396 336.938 337.021C336.941 336.648 337.092 336.292 337.357 336.029C337.622 335.766 337.98 335.619 338.353 335.619H352.393C352.766 335.619 353.123 335.766 353.386 336.03C353.649 336.293 353.797 336.649 353.797 337.021C353.799 337.206 353.763 337.39 353.694 337.561C353.624 337.733 353.52 337.889 353.39 338.02C353.259 338.152 353.104 338.256 352.933 338.327C352.762 338.398 352.579 338.435 352.393 338.435Z" fill="#FAFAFA"/>
<path d="M395.593 343.992H338.353C337.98 343.992 337.622 343.844 337.357 343.582C337.092 343.319 336.941 342.962 336.938 342.589C336.938 342.214 337.088 341.855 337.353 341.59C337.618 341.325 337.978 341.176 338.353 341.176H395.593C395.967 341.178 396.324 341.329 396.587 341.593C396.85 341.858 396.997 342.216 396.997 342.589C396.997 342.773 396.961 342.956 396.89 343.126C396.82 343.296 396.716 343.451 396.586 343.581C396.456 343.711 396.301 343.815 396.131 343.885C395.96 343.956 395.778 343.992 395.593 343.992Z" fill="#FAFAFA"/>
<path d="M388.033 349.387H338.353C337.98 349.387 337.622 349.24 337.357 348.977C337.092 348.714 336.941 348.357 336.938 347.984C336.938 347.609 337.088 347.25 337.353 346.985C337.618 346.72 337.978 346.571 338.353 346.571H388.033C388.407 346.574 388.764 346.724 389.027 346.989C389.29 347.253 389.437 347.611 389.437 347.984C389.437 348.356 389.289 348.713 389.026 348.976C388.763 349.239 388.406 349.387 388.033 349.387Z" fill="#FAFAFA"/>
<path d="M468.396 287.246H322.067C320.647 287.246 319.497 288.396 319.497 289.814V305.179C319.497 306.598 320.647 307.748 322.067 307.748H468.396C469.816 307.748 470.967 306.598 470.967 305.179V289.814C470.967 288.396 469.816 287.246 468.396 287.246Z" fill="#E0E0E0"/>
<path d="M338.472 292.771H324.432C324.059 292.771 323.7 292.623 323.435 292.36C323.17 292.098 323.02 291.741 323.017 291.368C323.017 290.993 323.166 290.634 323.431 290.368C323.697 290.103 324.057 289.954 324.432 289.954H338.472C338.845 289.957 339.202 290.107 339.465 290.372C339.728 290.637 339.876 290.995 339.876 291.368C339.876 291.74 339.728 292.097 339.465 292.36C339.201 292.623 338.844 292.771 338.472 292.771Z" fill="#FAFAFA"/>
<path d="M381.672 298.338H324.432C324.057 298.338 323.697 298.19 323.431 297.924C323.166 297.659 323.017 297.3 323.017 296.925C323.017 296.55 323.166 296.19 323.431 295.925C323.697 295.66 324.057 295.511 324.432 295.511H381.672C382.045 295.514 382.402 295.664 382.665 295.929C382.928 296.194 383.076 296.552 383.076 296.925C383.076 297.298 382.928 297.656 382.665 297.921C382.402 298.185 382.045 298.336 381.672 298.338Z" fill="#FAFAFA"/>
<path d="M374.112 303.734H324.432C324.057 303.734 323.697 303.585 323.431 303.32C323.166 303.054 323.017 302.695 323.017 302.32C323.017 301.945 323.166 301.586 323.431 301.321C323.697 301.055 324.057 300.906 324.432 300.906H374.112C374.485 300.909 374.842 301.06 375.105 301.324C375.368 301.589 375.516 301.947 375.516 302.32C375.516 302.693 375.368 303.051 375.105 303.316C374.842 303.58 374.485 303.731 374.112 303.734Z" fill="#FAFAFA"/>
<path d="M458.46 310.272H312.142C310.722 310.272 309.571 311.422 309.571 312.84V328.206C309.571 329.624 310.722 330.774 312.142 330.774H458.46C459.88 330.774 461.03 329.624 461.03 328.206V312.84C461.03 311.422 459.88 310.272 458.46 310.272Z" fill="#EBEBEB"/>
<path d="M328.547 315.797H314.507C314.131 315.797 313.772 315.648 313.506 315.383C313.241 315.118 313.092 314.758 313.092 314.383C313.095 314.01 313.245 313.654 313.51 313.391C313.775 313.128 314.133 312.981 314.507 312.981H328.547C328.919 312.981 329.276 313.129 329.539 313.392C329.803 313.655 329.951 314.011 329.951 314.383C329.952 314.569 329.917 314.752 329.847 314.924C329.777 315.095 329.674 315.251 329.543 315.382C329.413 315.514 329.257 315.618 329.086 315.689C328.915 315.76 328.732 315.797 328.547 315.797Z" fill="#FAFAFA"/>
<path d="M371.747 321.354H314.507C314.133 321.354 313.775 321.207 313.51 320.944C313.245 320.681 313.095 320.324 313.092 319.951C313.092 319.576 313.241 319.217 313.506 318.952C313.772 318.687 314.131 318.538 314.507 318.538H371.747C372.12 318.541 372.477 318.691 372.74 318.956C373.003 319.22 373.151 319.578 373.151 319.951C373.151 320.323 373.003 320.68 372.739 320.943C372.476 321.206 372.119 321.354 371.747 321.354Z" fill="#FAFAFA"/>
<path d="M364.187 326.749H314.507C314.133 326.749 313.775 326.602 313.51 326.339C313.245 326.076 313.095 325.719 313.092 325.346C313.092 324.971 313.241 324.612 313.506 324.347C313.772 324.082 314.131 323.933 314.507 323.933H364.187C364.56 323.936 364.917 324.086 365.18 324.351C365.443 324.615 365.591 324.973 365.591 325.346C365.591 325.718 365.443 326.075 365.179 326.338C364.916 326.601 364.559 326.749 364.187 326.749Z" fill="#FAFAFA"/>
<path d="M68.8283 234.978L44.5391 353.541H158.965L68.8283 234.978Z" fill="#E0E0E0"/>
<path d="M235.127 353.541H88.5494L68.8286 234.978H215.406L235.127 353.541Z" fill="#F5F5F5"/>
<path d="M105.624 277.654H82.4147L79.3799 259.537H102.578L105.624 277.654Z" fill="#EBEBEB"/>
<path d="M133.229 277.287H110.03L106.985 259.17H130.194L133.229 277.287Z" fill="#EBEBEB"/>
<path d="M160.845 276.909H137.646L134.601 258.803H157.799L160.845 276.909Z" fill="#EBEBEB"/>
<path d="M188.449 276.542H165.251L162.216 258.436H185.414L188.449 276.542Z" fill="#EBEBEB"/>
<path d="M216.065 276.175H192.866L189.821 258.069H213.019L216.065 276.175Z" fill="#EBEBEB"/>
<path d="M109.371 299.979H86.173L83.1274 281.862H106.326L109.371 299.979Z" fill="#EBEBEB"/>
<path d="M136.976 299.612H113.778L110.743 281.495H133.942L136.976 299.612Z" fill="#EBEBEB"/>
<path d="M164.592 299.245H141.394L138.348 281.128H161.547L164.592 299.245Z" fill="#EBEBEB"/>
<path d="M192.207 298.878H168.998L165.963 280.761H189.162L192.207 298.878Z" fill="#EBEBEB"/>
<path d="M219.812 298.511H196.614L193.568 280.394H216.778L219.812 298.511Z" fill="#EBEBEB"/>
<path d="M113.119 322.304H89.9206L86.875 304.198H110.073L113.119 322.304Z" fill="#EBEBEB"/>
<path d="M140.735 321.937H117.536L114.491 303.831H137.689L140.735 321.937Z" fill="#EBEBEB"/>
<path d="M168.34 321.57H145.141L142.096 303.464H165.305L168.34 321.57Z" fill="#EBEBEB"/>
<path d="M195.955 321.203H172.757L169.711 303.086H192.909L195.955 321.203Z" fill="#EBEBEB"/>
<path d="M223.56 320.836H200.361L197.327 302.719H220.525L223.56 320.836Z" fill="#EBEBEB"/>
<path d="M116.867 344.629H93.6686L90.623 326.523H113.832L116.867 344.629Z" fill="#EBEBEB"/>
<path d="M144.482 344.262H121.284L118.238 326.156H141.437L144.482 344.262Z" fill="#EBEBEB"/>
<path d="M172.087 343.895H148.889L145.854 325.789H169.052L172.087 343.895Z" fill="#EBEBEB"/>
<path d="M199.703 343.528H176.505L173.459 325.422H196.657L199.703 343.528Z" fill="#EBEBEB"/>
<path d="M227.307 343.161H204.109L201.074 325.055H224.273L227.307 343.161Z" fill="#EBEBEB"/>
<path d="M217.987 250.354H71.4098L68.8286 234.978H215.406L217.987 250.354Z" fill="#E6E6E6"/>
<path d="M307.876 228.483L305.986 226.735C305.651 226.417 305.245 226.184 304.802 226.054C304.358 225.925 303.89 225.903 303.437 225.99L293.037 228.073C292.602 228.157 292.196 228.353 291.86 228.64C291.523 228.928 291.266 229.297 291.114 229.713L290.293 232.011C290.143 232.426 289.886 232.795 289.549 233.081C289.212 233.367 288.806 233.56 288.371 233.64L282.161 234.892C281.809 234.957 281.475 235.096 281.18 235.299C280.885 235.502 280.636 235.764 280.45 236.07C280.263 236.375 280.143 236.716 280.097 237.071C280.052 237.426 280.082 237.787 280.185 238.129L289.159 272.442C289.346 273.161 289.799 273.784 290.426 274.184C291.053 274.584 291.808 274.733 292.54 274.6L341.745 264.749C342.096 264.682 342.429 264.542 342.723 264.339C343.017 264.136 343.265 263.873 343.452 263.568C343.638 263.263 343.758 262.923 343.804 262.568C343.851 262.214 343.822 261.854 343.721 261.512L334.8 227.166C334.611 226.448 334.158 225.827 333.532 225.428C332.906 225.028 332.152 224.878 331.42 225.008L310.468 229.206C310.009 229.305 309.534 229.291 309.082 229.165C308.631 229.039 308.216 228.805 307.876 228.483Z" fill="#EBEBEB"/>
<path d="M336.96 227.35L291.881 236.381C290.959 236.58 290.141 237.109 289.582 237.868C289.023 238.627 288.762 239.564 288.846 240.503L292.172 271.104C292.212 271.544 292.346 271.971 292.564 272.356C292.783 272.741 293.081 273.075 293.439 273.335C293.796 273.596 294.206 273.777 294.639 273.867C295.073 273.956 295.521 273.952 295.952 273.855L341.032 264.824C341.952 264.625 342.768 264.098 343.326 263.341C343.885 262.584 344.148 261.65 344.066 260.713L340.74 230.101C340.7 229.661 340.567 229.234 340.348 228.849C340.13 228.464 339.832 228.13 339.474 227.87C339.116 227.609 338.707 227.428 338.273 227.339C337.84 227.249 337.392 227.253 336.96 227.35Z" fill="#F5F5F5"/>
<path d="M464.249 149.444L463.169 147.103C462.974 146.686 462.683 146.32 462.322 146.035C461.96 145.751 461.536 145.554 461.084 145.463L450.651 143.51C450.217 143.423 449.767 143.451 449.347 143.591C448.926 143.731 448.549 143.978 448.254 144.308L446.623 146.132C446.328 146.46 445.954 146.706 445.535 146.846C445.117 146.986 444.669 147.015 444.236 146.93L438.005 145.754C437.657 145.686 437.299 145.691 436.953 145.769C436.607 145.847 436.282 145.995 435.996 146.205C435.711 146.415 435.473 146.682 435.296 146.989C435.119 147.296 435.008 147.636 434.97 147.988L430.412 183.153C430.324 183.887 430.515 184.626 430.947 185.226C431.379 185.826 432.021 186.241 432.745 186.39L482.058 195.68C482.406 195.75 482.764 195.746 483.11 195.67C483.457 195.594 483.783 195.447 484.07 195.238C484.356 195.029 484.596 194.763 484.774 194.456C484.952 194.15 485.064 193.81 485.103 193.458L489.661 158.282C489.749 157.548 489.559 156.808 489.126 156.209C488.694 155.609 488.053 155.193 487.328 155.044L466.322 151.063C465.874 150.974 465.453 150.781 465.093 150.5C464.733 150.219 464.444 149.857 464.249 149.444Z" fill="#EBEBEB"/>
<path d="M491.627 159.285L446.45 150.772C445.528 150.618 444.581 150.805 443.786 151.298C442.992 151.79 442.403 152.554 442.13 153.448L433.717 183.067C433.588 183.49 433.551 183.935 433.609 184.374C433.667 184.812 433.818 185.233 434.052 185.608C434.287 185.984 434.599 186.304 434.968 186.549C435.336 186.794 435.753 186.956 436.19 187.027L481.367 195.551C482.29 195.701 483.237 195.512 484.031 195.018C484.826 194.524 485.414 193.758 485.687 192.864L494.1 163.256C494.229 162.832 494.266 162.386 494.208 161.947C494.15 161.508 493.999 161.086 493.765 160.71C493.531 160.334 493.219 160.012 492.85 159.767C492.481 159.521 492.064 159.357 491.627 159.285Z" fill="#F5F5F5"/>
<path d="M82.2638 74.3338L81.1838 71.9923C80.9913 71.5755 80.7032 71.2098 80.343 70.9249C79.9828 70.64 79.5604 70.4438 79.1102 70.3522L68.6882 68.3884C68.2536 68.3006 67.8035 68.3282 67.3829 68.4683C66.9622 68.6084 66.5856 68.8561 66.2906 69.1869L64.6598 71.0104C64.3623 71.3375 63.9851 71.582 63.5649 71.72C63.1447 71.8581 62.6959 71.885 62.2622 71.7981L56.0414 70.6327C55.6943 70.5633 55.3365 70.5668 54.9908 70.6431C54.6451 70.7193 54.3192 70.8668 54.0336 71.0759C53.7481 71.285 53.5094 71.5512 53.3325 71.8576C53.1557 72.164 53.0447 72.5039 53.0066 72.8555L48.449 108.032C48.3581 108.766 48.5479 109.507 48.9804 110.107C49.4129 110.707 50.0563 111.122 50.7818 111.269L100.095 120.57C100.442 120.638 100.8 120.633 101.146 120.556C101.491 120.479 101.817 120.332 102.103 120.123C102.389 119.914 102.629 119.649 102.807 119.343C102.986 119.038 103.099 118.698 103.14 118.347L107.687 83.171C107.778 82.4386 107.59 81.6987 107.16 81.0987C106.729 80.4988 106.089 80.0829 105.365 79.9339L84.3482 75.9631C83.8964 75.8758 83.4719 75.6826 83.1095 75.3994C82.7471 75.1161 82.4573 74.7509 82.2638 74.3338Z" fill="#EBEBEB"/>
<path d="M109.652 84.1636L64.4758 75.6393C63.5525 75.4914 62.6068 75.6818 61.813 76.1756C61.0191 76.6693 60.4306 77.4331 60.1558 78.3261L51.7102 107.902C51.5813 108.325 51.5441 108.771 51.6012 109.209C51.6584 109.647 51.8085 110.069 52.0415 110.444C52.2746 110.82 52.5853 111.142 52.9528 111.388C53.3203 111.635 53.7362 111.8 54.1726 111.873L99.3598 120.429C100.282 120.583 101.229 120.396 102.024 119.903C102.818 119.411 103.407 118.647 103.68 117.754L112.082 88.1344C112.213 87.7137 112.253 87.2701 112.198 86.8329C112.144 86.3958 111.997 85.9752 111.767 85.5994C111.537 85.2236 111.229 84.9011 110.865 84.6535C110.5 84.4059 110.087 84.2389 109.652 84.1636Z" fill="#F5F5F5"/>
<path d="M239.587 113.168L237.071 110.06C236.625 109.504 236.054 109.061 235.405 108.767C234.756 108.472 234.046 108.335 233.334 108.366L216.875 109.272C216.187 109.302 215.52 109.511 214.938 109.878C214.356 110.245 213.881 110.758 213.559 111.366L211.777 114.721C211.454 115.328 210.978 115.84 210.397 116.207C209.816 116.574 209.149 116.783 208.462 116.815L198.644 117.354C198.095 117.381 197.557 117.521 197.064 117.766C196.571 118.011 196.135 118.355 195.782 118.776C195.428 119.198 195.167 119.688 195.013 120.216C194.858 120.744 194.815 121.298 194.886 121.843L201.118 176.582C201.253 177.723 201.814 178.771 202.689 179.517C203.564 180.264 204.688 180.652 205.837 180.606L283.673 176.29C284.223 176.265 284.762 176.126 285.256 175.882C285.749 175.638 286.186 175.294 286.54 174.872C286.893 174.449 287.155 173.959 287.308 173.43C287.462 172.902 287.504 172.347 287.431 171.802L281.211 117.063C281.073 115.921 280.51 114.872 279.633 114.126C278.756 113.38 277.631 112.992 276.48 113.038L243.335 114.873C242.62 114.902 241.908 114.763 241.257 114.467C240.606 114.171 240.034 113.726 239.587 113.168Z" fill="#EBEBEB"/>
<path d="M284.558 117.84L213.278 121.789C211.819 121.89 210.447 122.52 209.42 123.562C208.394 124.603 207.784 125.984 207.706 127.443L206.053 175.233C206.015 175.919 206.125 176.604 206.375 177.244C206.624 177.884 207.008 178.463 207.5 178.942C207.992 179.422 208.581 179.79 209.228 180.023C209.874 180.256 210.563 180.349 211.248 180.294L282.528 176.355C283.989 176.254 285.363 175.622 286.39 174.579C287.416 173.535 288.025 172.152 288.101 170.69L289.753 122.901C289.789 122.215 289.678 121.53 289.428 120.892C289.178 120.253 288.794 119.674 288.302 119.195C287.811 118.716 287.222 118.348 286.577 118.114C285.931 117.88 285.243 117.787 284.558 117.84Z" fill="#F5F5F5"/>
<path d="M266.911 15.6134L264.956 13.9302C264.609 13.6289 264.195 13.4142 263.748 13.3035C263.301 13.1929 262.834 13.1895 262.386 13.2935L252.072 15.7861C251.642 15.8884 251.246 16.1003 250.923 16.4009C250.599 16.7016 250.359 17.0808 250.225 17.5017L249.48 19.8324C249.351 20.2593 249.113 20.6452 248.789 20.9519C248.465 21.2585 248.067 21.4752 247.633 21.5804L241.477 23.0695C241.138 23.1513 240.818 23.3017 240.539 23.5115C240.26 23.7212 240.026 23.9859 239.853 24.2891C239.68 24.5924 239.571 24.9278 239.533 25.2748C239.495 25.6217 239.528 25.9729 239.63 26.3065L249.966 60.2309C250.184 60.9375 250.662 61.5356 251.303 61.9057C251.943 62.2758 252.7 62.3906 253.422 62.2271L302.195 50.4227C302.535 50.3421 302.856 50.1925 303.136 49.9833C303.417 49.774 303.651 49.5095 303.826 49.2062C304 48.9028 304.11 48.5669 304.149 48.2194C304.188 47.8718 304.155 47.52 304.052 47.1856L293.76 13.2288C293.542 12.5223 293.064 11.9242 292.424 11.5541C291.783 11.184 291.026 11.0692 290.304 11.2326L269.525 16.2501C269.07 16.3614 268.595 16.3617 268.14 16.2509C267.685 16.1401 267.264 15.9214 266.911 15.6134Z" fill="#EBEBEB"/>
<path d="M295.92 13.3259L251.23 24.1161C250.32 24.3575 249.53 24.923 249.009 25.7061C248.488 26.4893 248.271 27.4359 248.4 28.3674L252.936 58.8174C252.992 59.2558 253.141 59.6772 253.374 60.0533C253.606 60.4294 253.916 60.7514 254.283 60.9978C254.651 61.2441 255.067 61.409 255.503 61.4815C255.939 61.554 256.386 61.5322 256.813 61.4178L301.504 50.6276C302.41 50.3867 303.198 49.8249 303.721 49.0467C304.243 48.2686 304.465 47.3272 304.344 46.3979L299.808 15.9479C299.755 15.5064 299.608 15.0814 299.376 14.7018C299.144 14.3222 298.834 13.997 298.465 13.7482C298.096 13.4994 297.678 13.333 297.238 13.2601C296.799 13.1872 296.35 13.2096 295.92 13.3259Z" fill="#F5F5F5"/>
<path d="M270 402C385.649 402 479.401 396.531 479.401 389.785C479.401 383.04 385.649 377.571 270 377.571C154.351 377.571 60.5986 383.04 60.5986 389.785C60.5986 396.531 154.351 402 270 402Z" fill="#F5F5F5"/>
<path d="M454.443 34.8524V220.325C454.44 221.772 453.863 223.16 452.839 224.183C451.815 225.206 450.426 225.782 448.978 225.785H85.7954C84.3469 225.782 82.9586 225.206 81.9343 224.183C80.9101 223.16 80.3334 221.772 80.3306 220.325V34.8524C80.3306 33.4043 80.9063 32.0156 81.9312 30.9917C82.956 29.9677 84.346 29.3925 85.7954 29.3925H448.978C450.427 29.3925 451.817 29.9677 452.842 30.9917C453.867 32.0156 454.443 33.4043 454.443 34.8524Z" fill="#7E57C2"/>
<path opacity="0.7" d="M454.443 56.4866V220.325C454.44 221.772 453.863 223.159 452.839 224.183C451.815 225.206 450.426 225.782 448.978 225.785H85.7954C84.3469 225.782 82.9586 225.206 81.9343 224.183C80.9101 223.159 80.3334 221.772 80.3306 220.325V56.4866H454.443Z" fill="white"/>
<path opacity="0.1" d="M119.2 56.4866V225.785H85.7954C84.3469 225.782 82.9586 225.206 81.9343 224.183C80.9101 223.159 80.3334 221.772 80.3306 220.325V56.4866H119.2Z" fill="#222222"/>
<path opacity="0.1" d="M193.115 56.4866H154.246V225.785H193.115V56.4866Z" fill="#222222"/>
<path opacity="0.1" d="M267.03 56.4866H228.161V225.785H267.03V56.4866Z" fill="#222222"/>
<path opacity="0.1" d="M340.945 56.4866H302.076V225.785H340.945V56.4866Z" fill="#222222"/>
<path opacity="0.1" d="M414.86 56.4866H375.991V225.785H414.86V56.4866Z" fill="#222222"/>
<path opacity="0.7" d="M454.443 56.4866H80.3306V72.0353H454.443V56.4866Z" fill="white"/>
<g opacity="0.3">
<path opacity="0.3" d="M94.8348 61.5905H95.5908L94.8456 66.3922H94.1544L93.744 63.7486L93.3552 66.3922H92.664L91.854 61.5905H92.61L92.9988 64.1586L93.3444 61.5905H94.1004L94.4784 64.1586L94.8348 61.5905Z" fill="#222222"/>
<path opacity="0.3" d="M96.2063 66.3922V61.5905H98.2799V62.3135H96.9299V63.6622H97.9019V64.3852H96.9299V65.6908H98.2799V66.4245L96.2063 66.3922Z" fill="#222222"/>
<path opacity="0.3" d="M98.7659 66.3922V61.5905H100.829V62.3135H99.4895V63.6622H100.44V64.3852H99.4571V65.6908H100.796V66.4245L98.7659 66.3922Z" fill="#222222"/>
<path opacity="0.3" d="M102.049 64.8707V66.3922H101.326V61.5905H102.049V63.2954L102.935 61.5905H103.68L102.686 63.5435L103.853 66.3922H103.032L102.265 64.4391L102.049 64.8707Z" fill="#222222"/>
<path opacity="0.3" d="M105.495 66.3922V62.6911H104.879V62.184C105.058 62.1618 105.229 62.095 105.376 61.9897C105.524 61.8923 105.64 61.7535 105.711 61.5905H106.218V66.3922H105.495Z" fill="#222222"/>
<path opacity="0.3" d="M131.63 61.5905H132.386L131.641 66.3922H130.95L130.529 63.7486L130.151 66.3922H129.449L128.65 61.5905H129.406L129.784 64.1586L130.14 61.5905H130.896L131.274 64.1586L131.63 61.5905Z" fill="#222222"/>
<path opacity="0.3" d="M133.002 66.3922V61.5905H135.065V62.3135H133.726V63.6622H134.698V64.3852H133.726V65.6908H135.065V66.4245L133.002 66.3922Z" fill="#222222"/>
<path opacity="0.3" d="M135.562 66.3922V61.5905H137.624V62.3135H136.285V63.6622H137.257V64.3852H136.285V65.6908H137.624V66.4245L135.562 66.3922Z" fill="#222222"/>
<path opacity="0.3" d="M138.845 64.8707V66.3922H138.121V61.5905H138.845V63.2954L139.73 61.5905H140.508L139.514 63.5435L140.681 66.3922H139.827L139.061 64.4391L138.845 64.8707Z" fill="#222222"/>
<path opacity="0.3" d="M141.685 62.9392C141.665 62.7436 141.687 62.5457 141.75 62.3594C141.814 62.1731 141.917 62.0028 142.052 61.8602C142.16 61.7502 142.29 61.6644 142.433 61.6085C142.577 61.5527 142.73 61.5281 142.884 61.5365C143.038 61.5338 143.191 61.5642 143.333 61.6256C143.475 61.687 143.601 61.7781 143.705 61.8926C143.919 62.1165 144.039 62.4139 144.04 62.7234C144.04 63.0534 143.963 63.3789 143.813 63.673C143.655 63.9796 143.47 64.272 143.262 64.547L142.906 65.0649L142.776 65.2591L142.582 65.572C142.575 65.5931 142.575 65.6157 142.582 65.6368H143.996V66.3489H141.696V65.68C141.742 65.5855 141.796 65.4952 141.858 65.4102L142.02 65.1728L142.204 64.9031L142.722 64.1801C142.919 63.9134 143.089 63.6279 143.23 63.3277C143.31 63.1474 143.354 62.9531 143.359 62.7558C143.362 62.6204 143.32 62.4879 143.24 62.3781C143.199 62.3271 143.146 62.2861 143.086 62.2581C143.026 62.2301 142.961 62.2158 142.895 62.2163C142.795 62.2182 142.698 62.2531 142.62 62.3155C142.542 62.378 142.487 62.4645 142.463 62.5616C142.446 62.6543 142.446 62.7494 142.463 62.8421V63.0256H141.75L141.685 62.9392Z" fill="#222222"/>
<path opacity="0.3" d="M168.934 61.5905H169.7L168.944 66.3922H168.253L167.843 63.7486L167.454 66.3922H166.763L165.953 61.5905H166.72L167.098 64.1586L167.443 61.5905H168.199L168.588 64.1586L168.934 61.5905Z" fill="#222222"/>
<path opacity="0.3" d="M170.305 66.3922V61.5905H172.368V62.3135H171.029V63.6622H172.012V64.3852H171.029V65.6908H172.368V66.4245L170.305 66.3922Z" fill="#222222"/>
<path opacity="0.3" d="M172.865 66.3922V61.5905H174.96V62.3135H173.621V63.6622H174.604V64.3852H173.621V65.6908H174.96V66.4245L172.865 66.3922Z" fill="#222222"/>
<path opacity="0.3" d="M176.148 64.8707V66.3922H175.424V61.5905H176.148V63.2954L177.044 61.5905H177.811L176.818 63.5435L177.984 66.3922H177.12L176.364 64.4391L176.148 64.8707Z" fill="#222222"/>
<path opacity="0.3" d="M180.112 65.7015C180.436 65.7015 180.608 65.5504 180.608 65.2375V64.957C180.608 64.4606 180.349 64.2124 179.831 64.2124V63.5974C179.945 63.6086 180.06 63.5929 180.167 63.5517C180.274 63.5104 180.369 63.4448 180.446 63.36C180.58 63.1967 180.646 62.9879 180.63 62.7773V62.6586C180.63 62.3457 180.5 62.1947 180.22 62.1947C180.153 62.1893 180.087 62.2027 180.027 62.2332C179.968 62.2637 179.919 62.3102 179.885 62.3673C179.825 62.4723 179.795 62.5918 179.798 62.7126V62.8421H179.096V62.7234C179.084 62.4249 179.176 62.1313 179.356 61.8925C179.455 61.7697 179.582 61.6723 179.727 61.6085C179.872 61.5447 180.029 61.5163 180.187 61.5257C180.339 61.5231 180.489 61.5526 180.629 61.6121C180.769 61.6716 180.894 61.7598 180.997 61.871C181.093 61.9757 181.167 62.0982 181.215 62.2315C181.263 62.3648 181.285 62.5063 181.278 62.6479V62.8529C181.285 63.1326 181.189 63.4052 181.008 63.619C180.934 63.7146 180.842 63.7951 180.738 63.8564C180.963 63.9754 181.139 64.1704 181.235 64.4067C181.305 64.5472 181.338 64.703 181.332 64.8599V65.2375C181.341 65.4015 181.313 65.5655 181.25 65.717C181.186 65.8684 181.088 66.0034 180.965 66.1115C180.739 66.3299 180.436 66.4501 180.122 66.446C179.819 66.4404 179.529 66.3166 179.315 66.101C179.101 65.8854 178.98 65.595 178.978 65.2915V65.1728L179.669 65.1188V65.2915C179.67 65.3462 179.682 65.4002 179.704 65.4502C179.726 65.5003 179.758 65.5453 179.798 65.5828C179.838 65.6253 179.887 65.6581 179.941 65.6787C179.995 65.6993 180.054 65.7071 180.112 65.7015Z" fill="#222222"/>
<path opacity="0.3" d="M206.183 61.5905H206.939L206.183 66.3922H205.492L205.081 63.7486L204.703 66.3922H204.001L203.202 61.5905H203.958L204.336 64.1586L204.692 61.5905H205.448L205.826 64.1586L206.183 61.5905Z" fill="#222222"/>
<path opacity="0.3" d="M207.543 66.3922V61.5905H209.617V62.3135H208.278V63.6622H209.25V64.3852H208.278V65.6908H209.617V66.4245L207.543 66.3922Z" fill="#222222"/>
<path opacity="0.3" d="M210.114 66.3922V61.5905H212.177V62.3135H210.838V63.6622H211.81V64.3852H210.838V65.6908H212.177V66.4245L210.114 66.3922Z" fill="#222222"/>
<path opacity="0.3" d="M213.397 64.8707V66.3922H212.674V61.5905H213.397V63.2954L214.283 61.5905H215.06L214.067 63.5435L215.222 66.3922H214.38L213.613 64.4391L213.397 64.8707Z" fill="#222222"/>
<path opacity="0.3" d="M216.227 64.6226L217.501 61.5797H218.225V64.6226H218.689V65.3563H218.225V66.4353H217.501V65.3563H216.227V64.6226ZM217.501 64.6226V63.1227L216.907 64.6226H217.501Z" fill="#222222"/>
<path opacity="0.3" d="M243.594 61.5905H244.35L243.605 66.3922H242.914L242.503 63.7486L242.114 66.3922H241.423L240.613 61.5905H241.38L241.758 64.1586L242.104 61.5905H242.86L243.238 64.1586L243.594 61.5905Z" fill="#222222"/>
<path opacity="0.3" d="M244.966 66.3922V61.5905H247.028V62.3135H245.689V63.6622H246.672V64.3852H245.689V65.6908H247.028V66.4245L244.966 66.3922Z" fill="#222222"/>
<path opacity="0.3" d="M247.525 66.3922V61.5905H249.588V62.3135H248.249V63.6622H249.232V64.3852H248.249V65.6908H249.588V66.4245L247.525 66.3922Z" fill="#222222"/>
<path opacity="0.3" d="M250.808 64.8707V66.3922H250.085V61.5905H250.808V63.2954L251.694 61.5905H252.472L251.478 63.5435L252.644 66.3922H251.791L251.035 64.4391L250.808 64.8707Z" fill="#222222"/>
<path opacity="0.3" d="M254.437 62.3135V63.3925C254.498 63.3036 254.581 63.2314 254.677 63.1824C254.773 63.1334 254.88 63.1092 254.988 63.112C255.124 63.1044 255.259 63.1311 255.382 63.1895C255.505 63.248 255.611 63.3363 255.69 63.4465C255.834 63.6949 255.901 63.9801 255.884 64.2665V65.2916C255.889 65.4521 255.862 65.612 255.804 65.762C255.747 65.9119 255.66 66.0491 255.55 66.1656C255.444 66.2762 255.317 66.3632 255.175 66.4208C255.034 66.4785 254.882 66.5055 254.729 66.5001C254.581 66.4996 254.434 66.4687 254.299 66.4093C254.163 66.3499 254.041 66.2633 253.94 66.1548C253.837 66.048 253.757 65.921 253.705 65.7817C253.653 65.6425 253.63 65.494 253.638 65.3455V65.2376H254.329V65.3995C254.327 65.4802 254.349 65.5597 254.391 65.6286C254.433 65.6975 254.494 65.7528 254.567 65.7879H254.696C254.988 65.7879 255.139 65.6369 255.139 65.324V64.1478C255.14 64.0818 255.125 64.0166 255.097 63.9568C255.069 63.8971 255.028 63.8444 254.977 63.8025C254.951 63.7791 254.92 63.7613 254.887 63.7502C254.853 63.739 254.818 63.7348 254.783 63.7378C254.725 63.7358 254.668 63.7487 254.617 63.7751C254.566 63.8016 254.523 63.8408 254.491 63.8889C254.44 63.9694 254.414 64.0632 254.416 64.1586V64.2989H253.692V61.6661H255.852V62.3998L254.437 62.3135Z" fill="#222222"/>
<path opacity="0.3" d="M280.93 61.5905H281.686L280.93 66.3922H280.238L279.828 63.7486L279.45 66.3922H278.748L277.949 61.5905H278.705L279.083 64.1586L279.439 61.5905H280.195L280.573 64.1586L280.93 61.5905Z" fill="#222222"/>
<path opacity="0.3" d="M282.29 66.3922V61.5905H284.353V62.3135H283.025V63.6622H283.997V64.3852H283.025V65.6908H284.353V66.4245L282.29 66.3922Z" fill="#222222"/>
<path opacity="0.3" d="M284.861 66.3922V61.5905H286.924V62.3135H285.584V63.6622H286.556V64.3852H285.584V65.6908H286.924V66.4245L284.861 66.3922Z" fill="#222222"/>
<path opacity="0.3" d="M288.144 64.8707V66.3922H287.42V61.5905H288.144V63.2954L289.03 61.5905H289.807L288.814 63.5435L289.969 66.3922H289.127L288.36 64.4391L288.144 64.8707Z" fill="#222222"/>
<path opacity="0.3" d="M292.399 62.7774V62.6587C292.404 62.553 292.369 62.4493 292.302 62.3674C292.274 62.3251 292.235 62.2909 292.19 62.2682C292.144 62.2455 292.093 62.235 292.043 62.2379C291.99 62.2352 291.938 62.2457 291.891 62.2683C291.844 62.2909 291.803 62.325 291.773 62.3674C291.706 62.4493 291.671 62.553 291.676 62.6587V63.6622C291.824 63.5204 292.021 63.4396 292.226 63.4356C292.365 63.4283 292.504 63.4549 292.63 63.5132C292.756 63.5715 292.866 63.6597 292.95 63.7701C293.102 64.0117 293.173 64.2948 293.155 64.5794V65.3994C293.145 65.6912 293.025 65.9684 292.82 66.1763C292.619 66.3757 292.348 66.4881 292.064 66.4892C291.916 66.4929 291.768 66.4639 291.632 66.4042C291.495 66.3446 291.374 66.2557 291.276 66.144C291.172 66.0372 291.092 65.9101 291.04 65.7709C290.988 65.6316 290.965 65.4831 290.974 65.3347V62.7235C290.968 62.499 291.028 62.2777 291.146 62.0868C291.257 61.8982 291.423 61.7476 291.622 61.6552C291.762 61.5987 291.913 61.5694 292.064 61.5689C292.212 61.5694 292.359 61.6003 292.494 61.6597C292.63 61.7191 292.752 61.8057 292.853 61.9142C292.956 62.021 293.036 62.148 293.089 62.2873C293.141 62.4265 293.163 62.575 293.155 62.7235V62.8206L292.399 62.7774ZM291.676 65.2807C291.671 65.3865 291.706 65.4902 291.773 65.5721C291.803 65.6145 291.844 65.6485 291.891 65.6712C291.938 65.6938 291.99 65.7042 292.043 65.7016C292.095 65.7033 292.147 65.6924 292.194 65.6699C292.241 65.6473 292.281 65.6138 292.313 65.5721C292.371 65.4864 292.401 65.3845 292.399 65.2807V64.3959C292.399 64.331 292.386 64.2667 292.36 64.2073C292.334 64.1478 292.296 64.0944 292.248 64.0507C292.21 64.024 292.168 64.0051 292.123 63.995C292.078 63.9849 292.032 63.9838 291.987 63.9918C291.941 63.9999 291.898 64.0168 291.86 64.0418C291.821 64.0667 291.788 64.0991 291.762 64.137C291.706 64.216 291.676 64.3101 291.676 64.4067V65.2807Z" fill="#222222"/>
<path opacity="0.3" d="M318.233 61.5905H318.989L318.244 66.3922H317.52L317.109 63.7486L316.721 66.3922H316.029L315.219 61.5905H315.975L316.364 64.1586L316.71 61.5905H317.466L317.844 64.1586L318.233 61.5905Z" fill="#222222"/>
<path opacity="0.3" d="M319.604 66.3922V61.5905H321.667V62.3135H320.328V63.6622H321.3V64.3852H320.328V65.6908H321.667V66.4245L319.604 66.3922Z" fill="#222222"/>
<path opacity="0.3" d="M322.164 66.3922V61.5905H324.227V62.3135H322.92V63.6622H323.903V64.3852H322.92V65.6908H324.259V66.4245L322.164 66.3922Z" fill="#222222"/>
<path opacity="0.3" d="M325.447 64.8707V66.3922H324.724V61.5905H325.447V63.2954L326.333 61.5905H327.11L326.117 63.5435L327.283 66.3922H326.43L325.663 64.4391L325.447 64.8707Z" fill="#222222"/>
<path opacity="0.3" d="M330.48 61.5797V62.3134L329.465 66.3921H328.752L329.767 62.3134H328.32V61.5797H330.48Z" fill="#222222"/>
<path opacity="0.3" d="M355.45 61.5905H356.206L355.46 66.3922H354.769L354.348 63.7486L353.97 66.3922H353.268L352.469 61.5905H353.225L353.603 64.1586L353.959 61.5905H354.715L355.093 64.1586L355.45 61.5905Z" fill="#222222"/>
<path opacity="0.3" d="M356.821 66.3922V61.5905H358.884V62.3135H357.545V63.6622H358.517V64.3852H357.545V65.6908H358.884V66.4245L356.821 66.3922Z" fill="#222222"/>
<path opacity="0.3" d="M359.381 66.3922V61.5905H361.444V62.3135H360.104V63.6622H361.076V64.3852H360.104V65.6908H361.444V66.4245L359.381 66.3922Z" fill="#222222"/>
<path opacity="0.3" d="M362.664 64.8707V66.3922H361.94V61.5905H362.664V63.2954L363.55 61.5905H364.327L363.334 63.5435L364.5 66.3922H363.647L362.88 64.4391L362.664 64.8707Z" fill="#222222"/>
<path opacity="0.3" d="M367.848 65.2915C367.849 65.4435 367.82 65.5943 367.763 65.735C367.705 65.8757 367.62 66.0036 367.513 66.1111C367.405 66.2186 367.277 66.3036 367.136 66.3611C366.995 66.4186 366.844 66.4475 366.692 66.446C366.541 66.4486 366.39 66.4191 366.25 66.3596C366.111 66.3001 365.985 66.2119 365.882 66.1008C365.773 65.9967 365.687 65.871 365.629 65.7316C365.571 65.5922 365.544 65.4423 365.547 65.2915V64.8599C365.54 64.5761 365.645 64.3009 365.839 64.0938C365.925 63.9972 366.027 63.9168 366.141 63.8564C365.941 63.7434 365.782 63.5695 365.688 63.36C365.627 63.217 365.597 63.0624 365.601 62.9069V62.6479C365.595 62.5063 365.616 62.3648 365.665 62.2315C365.713 62.0982 365.787 61.9757 365.882 61.871C365.985 61.7598 366.111 61.6716 366.25 61.6121C366.39 61.5526 366.541 61.5232 366.692 61.5257C366.846 61.5216 366.998 61.5503 367.14 61.6099C367.282 61.6694 367.409 61.7584 367.513 61.871C367.609 61.9757 367.683 62.0982 367.731 62.2315C367.779 62.3648 367.8 62.5063 367.794 62.6479V62.9069C367.802 63.1803 367.705 63.4464 367.524 63.6514C367.444 63.7323 367.353 63.8013 367.254 63.8564C367.475 63.9816 367.649 64.1746 367.751 64.4067C367.821 64.5473 367.854 64.7031 367.848 64.8599V65.2915ZM367.146 62.8421C367.146 62.5076 367.038 62.3026 366.833 62.2271C366.779 62.2146 366.724 62.2146 366.671 62.2271C366.558 62.2231 366.448 62.2573 366.357 62.3242C366.292 62.3803 366.247 62.456 366.228 62.54C366.204 62.6502 366.204 62.7642 366.228 62.8745C366.227 63.0308 366.26 63.1854 366.325 63.3277C366.367 63.3886 366.423 63.4377 366.49 63.4699C366.556 63.502 366.63 63.5163 366.703 63.5111C366.778 63.5163 366.853 63.5009 366.919 63.4667C366.986 63.4325 367.042 63.3807 367.081 63.3169C367.164 63.1727 367.205 63.0083 367.2 62.8421H367.146ZM367.146 65.0002C367.16 64.8947 367.15 64.7874 367.116 64.6864C367.082 64.5855 367.026 64.4935 366.951 64.4175C366.873 64.371 366.783 64.3485 366.692 64.3527C366.609 64.3454 366.526 64.3658 366.456 64.4107C366.385 64.4556 366.332 64.5225 366.304 64.6009C366.255 64.7281 366.233 64.864 366.239 65.0002V65.2267C366.234 65.2977 366.244 65.3687 366.268 65.4356C366.293 65.5024 366.33 65.5635 366.379 65.6152C366.467 65.6908 366.577 65.7362 366.692 65.7447C366.782 65.7435 366.87 65.715 366.943 65.663C367.016 65.6109 367.072 65.5378 367.103 65.4534C367.115 65.3783 367.115 65.3018 367.103 65.2267L367.146 65.0002Z" fill="#222222"/>
<path opacity="0.3" d="M392.828 61.5905H393.595L392.839 66.3922H392.148L391.738 63.7486L391.349 66.3922H390.658L389.858 61.5905H390.614L390.992 64.1586L391.338 61.5905H392.105L392.483 64.1586L392.828 61.5905Z" fill="#222222"/>
<path opacity="0.3" d="M394.2 66.3922V61.5905H396.263V62.3135H394.924V63.6622H395.906V64.3852H394.924V65.6908H396.263V66.4245L394.2 66.3922Z" fill="#222222"/>
<path opacity="0.3" d="M396.771 66.3922V61.5905H398.833V62.3135H397.494V63.6622H398.466V64.3852H397.494V65.6908H398.833V66.4245L396.771 66.3922Z" fill="#222222"/>
<path opacity="0.3" d="M400.054 64.8707V66.3922H399.33V61.5905H400.054V63.2954L400.939 61.5905H401.76L400.777 63.5435L401.933 66.3922H401.08L400.324 64.4391L400.054 64.8707Z" fill="#222222"/>
<path opacity="0.3" d="M403.974 61.5041C404.122 61.5046 404.268 61.5355 404.404 61.5949C404.54 61.6543 404.662 61.7409 404.762 61.8494C404.864 61.9549 404.944 62.0802 404.996 62.2175C405.048 62.3548 405.071 62.5012 405.065 62.6478V65.2699C405.07 65.5734 404.958 65.8672 404.752 66.0899C404.651 66.1951 404.531 66.279 404.397 66.3365C404.263 66.394 404.119 66.4239 403.974 66.4244C403.825 66.4281 403.678 66.3991 403.541 66.3394C403.405 66.2797 403.284 66.1909 403.186 66.0791C403.082 65.9723 403.002 65.8453 402.95 65.7061C402.898 65.5668 402.875 65.4183 402.883 65.2699V65.1728H403.628V65.2915C403.624 65.3972 403.658 65.5009 403.726 65.5828C403.758 65.6219 403.8 65.6529 403.847 65.6734C403.894 65.694 403.944 65.7036 403.996 65.7015C404.045 65.7028 404.094 65.6927 404.139 65.6722C404.184 65.6516 404.223 65.621 404.255 65.5828C404.322 65.5009 404.356 65.3972 404.352 65.2915V64.3311C404.203 64.4729 404.007 64.5538 403.801 64.5577C403.664 64.5642 403.527 64.5371 403.403 64.4788C403.279 64.4205 403.171 64.3328 403.088 64.2232C402.936 63.978 402.864 63.6912 402.883 63.4032V62.5831C402.893 62.3696 402.956 62.1619 403.067 61.9789C403.184 61.8062 403.349 61.6712 403.542 61.5904C403.679 61.534 403.826 61.5046 403.974 61.5041ZM404.352 62.6586C404.356 62.5529 404.322 62.4492 404.255 62.3673C404.225 62.3265 404.186 62.2934 404.141 62.2708C404.096 62.2483 404.046 62.237 403.996 62.2378C403.943 62.2352 403.891 62.2456 403.844 62.2682C403.797 62.2909 403.756 62.3249 403.726 62.3673C403.658 62.4492 403.624 62.5529 403.628 62.6586V63.5542C403.628 63.6191 403.641 63.6834 403.667 63.7429C403.693 63.8024 403.732 63.8557 403.78 63.8995C403.838 63.9446 403.911 63.9676 403.985 63.9643C404.068 63.9676 404.15 63.9396 404.214 63.8857C404.278 63.8318 404.32 63.7559 404.33 63.6729C404.334 63.6262 404.334 63.5793 404.33 63.5326L404.352 62.6586Z" fill="#222222"/>
<path opacity="0.3" d="M429.095 61.5905H429.851L429.095 66.3922H428.414L427.993 63.7486L427.615 66.3922H426.913L426.114 61.5905H426.87L427.248 64.1586L427.604 61.5905H428.36L428.738 64.1586L429.095 61.5905Z" fill="#222222"/>
<path opacity="0.3" d="M430.466 66.3922V61.5905H432.529V62.3135H431.19V63.6622H432.162V64.3852H431.19V65.6908H432.529V66.4245L430.466 66.3922Z" fill="#222222"/>
<path opacity="0.3" d="M433.08 66.3922V61.5905H435.143V62.3135H433.804V63.6622H434.776V64.3852H433.804V65.6908H435.143V66.4245L433.08 66.3922Z" fill="#222222"/>
<path opacity="0.3" d="M436.32 64.8707V66.3922H435.596V61.5905H436.32V63.2954L437.206 61.5905H437.983L436.99 63.5435L438.156 66.3922H437.303L436.536 64.4391L436.32 64.8707Z" fill="#222222"/>
<path opacity="0.3" d="M439.754 66.3922V62.6911H439.139V62.184C439.318 62.1618 439.489 62.095 439.635 61.9897C439.781 61.8892 439.897 61.7513 439.97 61.5905H440.478V66.3922H439.754Z" fill="#222222"/>
<path opacity="0.3" d="M443.416 65.2915C443.42 65.4449 443.391 65.5974 443.331 65.7388C443.272 65.8802 443.183 66.0073 443.07 66.1116C442.967 66.2194 442.843 66.3048 442.705 66.3624C442.568 66.42 442.42 66.4484 442.271 66.4461C442.119 66.447 441.968 66.418 441.827 66.3606C441.686 66.3032 441.558 66.2185 441.45 66.1116C441.339 66.0063 441.252 65.8788 441.194 65.7374C441.137 65.5961 441.11 65.4441 441.115 65.2915V62.6803C441.116 62.4531 441.184 62.2311 441.31 62.0422C441.436 61.8533 441.616 61.7058 441.825 61.6183C442.035 61.5307 442.266 61.507 442.49 61.55C442.713 61.5931 442.919 61.701 443.081 61.8602C443.188 61.9682 443.273 62.0962 443.33 62.2369C443.387 62.3776 443.417 62.5283 443.416 62.6803V65.2915ZM442.66 62.6587C442.661 62.6046 442.651 62.5509 442.63 62.5008C442.61 62.4508 442.579 62.4053 442.541 62.3674C442.502 62.3261 442.455 62.2933 442.403 62.271C442.351 62.2487 442.295 62.2374 442.238 62.2379C442.183 62.2383 442.129 62.25 442.079 62.2723C442.029 62.2945 441.984 62.3269 441.947 62.3674C441.908 62.4053 441.878 62.4508 441.857 62.5008C441.837 62.5509 441.827 62.6046 441.828 62.6587V65.2807C441.828 65.3928 441.87 65.5008 441.947 65.5828C442.026 65.6576 442.13 65.7 442.238 65.7015C442.294 65.703 442.35 65.6931 442.401 65.6725C442.453 65.6519 442.5 65.621 442.54 65.5816C442.579 65.5422 442.61 65.4952 442.631 65.4435C442.651 65.3918 442.661 65.3364 442.66 65.2807V62.6587Z" fill="#222222"/>
</g>
<g opacity="0.4">
<path opacity="0.4" d="M92.448 44.693L90.1152 37.9814H92.0268L93.312 42.0817L94.5972 37.9383H96.5196L94.1868 44.6498V49.473H92.448V44.693Z" fill="white"/>
<path opacity="0.4" d="M97.9128 49.5162V37.9815H102.859V39.7295H99.6192V42.8803H101.963V44.6283H99.6516V47.7682H102.892V49.5162H97.9128Z" fill="white"/>
<path opacity="0.4" d="M106.294 46.8727L105.84 49.5163H104.058L106.024 37.9923H108.411L110.344 49.5163H108.519L108.108 46.8727H106.294ZM107.212 40.6359L106.564 45.1786H107.849L107.212 40.6359Z" fill="white"/>
<path opacity="0.4" d="M114.556 37.9923C114.953 37.9549 115.353 38.0073 115.727 38.1455C116.101 38.2838 116.439 38.5043 116.716 38.7908C117.147 39.3474 117.362 40.0412 117.32 40.7438V42.4163C117.326 42.8083 117.245 43.1967 117.085 43.5545C116.924 43.9123 116.688 44.2309 116.392 44.488L117.677 49.5162H115.798L114.718 45.2001H113.562V49.5162H111.823V37.9923H114.556ZM115.636 40.7762C115.655 40.6408 115.643 40.5027 115.6 40.3728C115.557 40.2429 115.485 40.1247 115.389 40.0274C115.292 39.9302 115.175 39.8566 115.045 39.8124C114.916 39.7682 114.778 39.7546 114.642 39.7727H113.562V43.4521H114.642C114.773 43.4521 114.904 43.4261 115.025 43.3756C115.146 43.325 115.256 43.2509 115.348 43.1576C115.441 43.0642 115.514 42.9535 115.563 42.8318C115.612 42.7102 115.637 42.5799 115.636 42.4486V40.7762Z" fill="white"/>
</g>
<path d="M270.562 117.279H124.243C122.824 117.279 121.673 118.429 121.673 119.847V135.212C121.673 136.63 122.824 137.78 124.243 137.78H270.562C271.981 137.78 273.132 136.63 273.132 135.212V119.847C273.132 118.429 271.981 117.279 270.562 117.279Z" fill="#7E57C2"/>
<path opacity="0.2" d="M270.562 117.279H124.243C122.824 117.279 121.673 118.429 121.673 119.847V135.212C121.673 136.63 122.824 137.78 124.243 137.78H270.562C271.981 137.78 273.132 136.63 273.132 135.212V119.847C273.132 118.429 271.981 117.279 270.562 117.279Z" fill="white"/>
<path opacity="0.7" d="M140.649 122.803H126.609C126.233 122.803 125.874 122.654 125.608 122.389C125.343 122.124 125.194 121.765 125.194 121.39C125.197 121.017 125.347 120.66 125.612 120.397C125.877 120.134 126.235 119.987 126.609 119.987H140.649C141.021 119.987 141.378 120.135 141.641 120.398C141.905 120.661 142.053 121.018 142.053 121.39C142.053 121.763 141.905 122.121 141.642 122.385C141.379 122.65 141.022 122.8 140.649 122.803Z" fill="white"/>
<path opacity="0.7" d="M183.849 128.403H126.609C126.235 128.403 125.877 128.256 125.612 127.993C125.347 127.73 125.197 127.374 125.194 127.001C125.194 126.626 125.343 126.266 125.608 126.001C125.874 125.736 126.233 125.587 126.609 125.587H183.849C184.034 125.587 184.217 125.624 184.388 125.695C184.559 125.766 184.715 125.87 184.845 126.002C184.976 126.133 185.079 126.289 185.149 126.461C185.219 126.632 185.254 126.816 185.253 127.001C185.253 127.373 185.105 127.729 184.841 127.993C184.578 128.256 184.221 128.403 183.849 128.403Z" fill="white"/>
<path opacity="0.7" d="M176.289 133.799H126.609C126.235 133.799 125.877 133.651 125.612 133.388C125.347 133.126 125.197 132.769 125.194 132.396C125.194 132.021 125.343 131.661 125.608 131.396C125.874 131.131 126.233 130.982 126.609 130.982H176.289C176.474 130.982 176.657 131.019 176.828 131.09C176.999 131.161 177.155 131.266 177.285 131.397C177.416 131.528 177.519 131.684 177.589 131.856C177.659 132.027 177.694 132.211 177.693 132.396C177.693 132.768 177.545 133.125 177.281 133.388C177.018 133.651 176.661 133.799 176.289 133.799Z" fill="white"/>
<path d="M365.764 141.308H219.445C218.026 141.308 216.875 142.458 216.875 143.877V159.242C216.875 160.66 218.026 161.81 219.445 161.81H365.764C367.183 161.81 368.334 160.66 368.334 159.242V143.877C368.334 142.458 367.183 141.308 365.764 141.308Z" fill="white"/>
<path opacity="0.3" d="M235.851 146.833H221.811C221.437 146.833 221.079 146.686 220.814 146.423C220.549 146.16 220.399 145.803 220.396 145.43C220.396 145.055 220.545 144.696 220.81 144.431C221.076 144.166 221.436 144.017 221.811 144.017H235.851C236.224 144.02 236.581 144.17 236.844 144.435C237.107 144.699 237.255 145.057 237.255 145.43C237.255 145.615 237.218 145.797 237.148 145.967C237.077 146.137 236.974 146.292 236.844 146.422C236.713 146.552 236.558 146.656 236.388 146.726C236.218 146.797 236.035 146.833 235.851 146.833Z" fill="#222222"/>
<path opacity="0.3" d="M279.051 152.401H221.811C221.436 152.401 221.076 152.252 220.81 151.987C220.545 151.722 220.396 151.362 220.396 150.987C220.399 150.614 220.549 150.258 220.814 149.995C221.079 149.732 221.437 149.585 221.811 149.585H279.051C279.235 149.585 279.418 149.621 279.588 149.691C279.758 149.762 279.913 149.865 280.044 149.995C280.174 150.126 280.277 150.28 280.348 150.451C280.418 150.621 280.455 150.803 280.455 150.987C280.455 151.36 280.307 151.718 280.044 151.983C279.781 152.248 279.424 152.398 279.051 152.401Z" fill="#222222"/>
<path opacity="0.3" d="M271.491 157.796H221.811C221.436 157.796 221.076 157.647 220.81 157.382C220.545 157.117 220.396 156.757 220.396 156.382C220.399 156.009 220.549 155.653 220.814 155.39C221.079 155.127 221.437 154.98 221.811 154.98H271.491C271.863 154.98 272.22 155.127 272.484 155.391C272.747 155.654 272.895 156.01 272.895 156.382C272.895 156.755 272.747 157.113 272.484 157.378C272.221 157.643 271.864 157.793 271.491 157.796Z" fill="#222222"/>
<path d="M277.064 362.411C269.363 356.498 269.082 347.304 277.064 342.147C285.045 336.989 289.311 317.394 289.311 317.394H240.3C240.3 317.394 244.62 337.032 252.547 342.147C260.475 347.261 260.237 356.498 252.547 362.411C244.858 368.324 240.3 388.081 240.3 388.081H289.311C289.311 388.081 284.753 368.335 277.064 362.411Z" fill="#7E57C2"/>
<path opacity="0.7" d="M277.064 362.411C269.363 356.498 269.082 347.304 277.064 342.147C285.045 336.989 289.311 317.394 289.311 317.394H240.3C240.3 317.394 244.62 337.032 252.547 342.147C260.475 347.261 260.237 356.498 252.547 362.411C244.858 368.324 240.3 388.081 240.3 388.081H289.311C289.311 388.081 284.753 368.335 277.064 362.411Z" fill="white"/>
<path d="M289.343 320.523H240.268C239.437 320.523 238.64 320.194 238.053 319.607C237.466 319.02 237.136 318.224 237.136 317.394C237.136 316.564 237.466 315.768 238.053 315.181C238.64 314.595 239.437 314.265 240.268 314.265H289.343C290.174 314.265 290.97 314.595 291.558 315.181C292.145 315.768 292.475 316.564 292.475 317.394C292.475 318.224 292.145 319.02 291.558 319.607C290.97 320.194 290.174 320.523 289.343 320.523Z" fill="#7E57C2"/>
<path d="M289.343 391.739H240.268C239.437 391.739 238.64 391.409 238.053 390.822C237.466 390.235 237.136 389.439 237.136 388.609C237.136 387.779 237.466 386.984 238.053 386.397C238.64 385.81 239.437 385.48 240.268 385.48H289.343C290.174 385.48 290.97 385.81 291.558 386.397C292.145 386.984 292.475 387.779 292.475 388.609C292.475 389.439 292.145 390.235 291.558 390.822C290.97 391.409 290.174 391.739 289.343 391.739Z" fill="#7E57C2"/>
<path d="M243.875 384.412H284.04C284.04 384.412 272.959 378.262 266.382 376.201V360.781C266.417 353.638 269.219 346.785 274.201 341.661C275.88 339.901 277.364 337.965 278.629 335.888L249.577 334.496C251.067 336.806 252.766 338.973 254.653 340.971C259.457 346.029 262.126 352.741 262.105 359.713V375.726C255.517 376.578 243.875 384.412 243.875 384.412Z" fill="#7E57C2"/>
<path opacity="0.4" d="M243.875 384.412H284.04C284.04 384.412 272.959 378.262 266.382 376.201V360.781C266.417 353.638 269.219 346.785 274.201 341.661C275.88 339.901 277.364 337.965 278.629 335.888L249.577 334.496C251.067 336.806 252.766 338.973 254.653 340.971C259.457 346.029 262.126 352.741 262.105 359.713V375.726C255.517 376.578 243.875 384.412 243.875 384.412Z" fill="white"/>
<path d="M424.759 104.745L279.926 83.8928C278.521 83.6905 277.218 84.6645 277.015 86.0683L274.822 101.276C274.619 102.68 275.594 103.982 276.999 104.185L421.832 125.036C423.237 125.239 424.541 124.265 424.743 122.861L426.937 107.653C427.139 106.249 426.164 104.947 424.759 104.745Z" fill="#7E57C2"/>
<path opacity="0.1" d="M424.759 104.745L279.926 83.8928C278.521 83.6905 277.218 84.6645 277.015 86.0683L274.822 101.276C274.619 102.68 275.594 103.982 276.999 104.185L421.832 125.036C423.237 125.239 424.541 124.265 424.743 122.861L426.937 107.653C427.139 106.249 426.164 104.947 424.759 104.745Z" fill="#222222"/>
<path opacity="0.7" d="M295.369 91.7168L281.47 89.7206C281.099 89.6672 280.765 89.4691 280.54 89.1697C280.315 88.8704 280.218 88.4942 280.271 88.1237C280.327 87.7553 280.526 87.4239 280.826 87.2016C281.125 86.9794 281.5 86.8842 281.869 86.9368L295.769 88.9329C295.952 88.9593 296.128 89.0217 296.287 89.1163C296.446 89.211 296.585 89.3361 296.695 89.4846C296.806 89.633 296.886 89.8017 296.93 89.9811C296.975 90.1605 296.984 90.347 296.957 90.5299C296.932 90.7125 296.871 90.8882 296.777 91.047C296.683 91.2058 296.559 91.3444 296.411 91.4548C296.264 91.5653 296.095 91.6453 295.917 91.6902C295.738 91.7352 295.552 91.7442 295.369 91.7168Z" fill="white"/>
<path opacity="0.7" d="M337.327 103.37L280.67 95.2128C280.487 95.1864 280.311 95.1241 280.152 95.0294C279.993 94.9348 279.854 94.8096 279.744 94.6612C279.634 94.5128 279.554 94.344 279.509 94.1646C279.464 93.9852 279.455 93.7987 279.482 93.6158C279.509 93.4328 279.571 93.2568 279.666 93.098C279.761 92.9391 279.886 92.8005 280.035 92.6902C280.183 92.5799 280.352 92.5 280.532 92.4552C280.711 92.4104 280.898 92.4014 281.081 92.4289L337.727 100.586C337.911 100.611 338.088 100.673 338.249 100.767C338.409 100.861 338.549 100.986 338.66 101.135C338.772 101.283 338.853 101.452 338.898 101.632C338.944 101.812 338.953 102 338.926 102.183C338.899 102.366 338.837 102.542 338.742 102.701C338.647 102.86 338.522 102.999 338.373 103.109C338.225 103.219 338.056 103.299 337.876 103.344C337.697 103.389 337.51 103.398 337.327 103.37Z" fill="white"/>
<path opacity="0.7" d="M329.076 107.632L279.903 100.554C279.72 100.528 279.544 100.465 279.385 100.371C279.226 100.276 279.087 100.151 278.977 100.002C278.866 99.8539 278.787 99.6852 278.742 99.5058C278.697 99.3264 278.688 99.1399 278.715 98.957C278.74 98.7744 278.802 98.5987 278.895 98.4399C278.989 98.2811 279.113 98.1425 279.261 98.032C279.409 97.9216 279.577 97.8416 279.756 97.7967C279.934 97.7517 280.121 97.7427 280.303 97.7701L329.475 104.848C329.659 104.874 329.837 104.935 329.997 105.029C330.157 105.123 330.297 105.248 330.409 105.397C330.52 105.545 330.601 105.714 330.647 105.894C330.692 106.074 330.702 106.262 330.674 106.445C330.618 106.814 330.419 107.145 330.119 107.367C329.82 107.59 329.445 107.685 329.076 107.632Z" fill="white"/>
<path d="M389.156 383.149L379.793 384.131L379.317 378.704L378.043 363.954L387.407 362.961L388.821 379.265L389.156 383.149Z" fill="#E4897B"/>
<path d="M435.888 381.963H426.816L426.74 379.912L426.73 379.654L426.265 366.5L426.254 366.241L426.071 361.202H435.154L435.888 381.963Z" fill="#E4897B"/>
<path opacity="0.2" d="M387.407 362.961L388.821 379.265L379.317 378.704L378.043 363.954L387.407 362.961Z" fill="#222222"/>
<path opacity="0.2" d="M435.834 380.808H435.823L426.74 379.653H426.73L426.254 366.964H426.265L435.359 367.687L435.823 380.409L435.834 380.808Z" fill="#222222"/>
<path d="M425.52 381.412H436.547C436.727 381.413 436.901 381.476 437.041 381.59C437.18 381.704 437.276 381.862 437.313 382.038L439.106 390.109C439.142 390.284 439.143 390.465 439.107 390.64C439.072 390.816 439.002 390.982 438.902 391.13C438.801 391.278 438.671 391.404 438.521 391.501C438.371 391.598 438.203 391.664 438.026 391.695H437.735C434.171 391.641 431.568 391.415 427.086 391.415C424.332 391.415 416.005 391.706 412.193 391.706C408.38 391.706 407.873 387.951 409.449 387.595C416.448 386.074 421.707 383.97 423.954 381.963C424.166 381.772 424.413 381.626 424.682 381.531C424.951 381.437 425.235 381.396 425.52 381.412Z" fill="#222222"/>
<path d="M378.799 381.132H389.88C390.059 381.134 390.233 381.195 390.374 381.306C390.515 381.418 390.614 381.573 390.658 381.747L392.44 389.829C392.478 390 392.481 390.178 392.45 390.35C392.419 390.523 392.354 390.688 392.258 390.836C392.163 390.983 392.039 391.111 391.894 391.21C391.749 391.309 391.586 391.379 391.414 391.415H391.111C387.547 391.415 384.955 391.145 380.473 391.145C377.708 391.145 369.392 391.426 365.58 391.426C361.768 391.426 361.26 387.671 362.826 387.325C369.824 385.804 375.095 383.689 377.33 381.682C377.734 381.321 378.258 381.125 378.799 381.132Z" fill="#222222"/>
<path d="M377.179 377.344H390.496C390.496 377.344 389.416 278.323 403.801 239.661C404.816 252.437 405.961 265.698 407.041 276.747C407.743 283.588 408.434 286.232 409.093 290.699C413.284 319.541 423.857 378.499 423.857 378.499H437.011C437.011 378.499 435.456 322.519 433.89 294.173C432.173 263.411 431.438 199.025 431.363 193.253H383.195C378.659 217.477 366.908 298.889 377.179 377.344Z" fill="#222222"/>
<path opacity="0.2" d="M377.179 377.344H390.496C390.496 377.344 389.416 278.323 403.801 239.661C404.816 252.437 405.961 265.698 407.041 276.747C407.743 283.588 408.434 286.232 409.093 290.699C413.284 319.541 423.857 378.499 423.857 378.499H437.011C437.011 378.499 435.456 322.519 433.89 294.173C432.173 263.411 431.438 199.025 431.363 193.253H383.195C378.659 217.477 366.908 298.889 377.179 377.344Z" fill="white"/>
<path d="M437.054 116.901C443.718 121.217 459.086 153.502 452.855 159.976C441.99 171.262 430.175 139.852 430.175 139.852L437.054 116.901Z" fill="#7E57C2"/>
<path opacity="0.3" d="M452.855 159.986C450.328 162.608 447.747 162.921 445.295 161.853C437.163 158.325 430.24 139.852 430.24 139.852L434.16 126.699L437.087 116.901C443.718 121.163 459.087 153.502 452.855 159.986Z" fill="#222222"/>
<path opacity="0.2" d="M445.273 161.853C437.141 158.325 430.218 139.852 430.218 139.852L434.16 126.699C434.16 126.699 447.12 142.139 445.273 161.853Z" fill="#222222"/>
<path d="M400.734 94.8351C400.839 95.2701 400.969 95.6988 401.123 96.1192C401.975 98.5228 403.543 100.609 405.616 102.097C406.135 102.478 406.684 102.817 407.257 103.111C409.448 104.278 411.961 104.699 414.413 104.309C416.865 103.92 419.123 102.741 420.844 100.953C425.39 96.3673 425.272 91.0693 425.779 82.1027C425.927 80.1754 425.612 78.2407 424.861 76.4594C424.243 74.9703 423.337 73.6176 422.195 72.4786C421.053 71.3396 419.697 70.4367 418.206 69.8214C416.714 69.2061 415.116 68.8905 413.502 68.8927C411.889 68.8949 410.291 69.2148 408.802 69.8342C399.989 73.3734 398.79 86.764 400.734 94.8351Z" fill="#E4897B"/>
<path opacity="0.2" d="M405.616 102.097C406.135 102.478 406.684 102.817 407.257 103.111C408.759 103.912 410.422 104.367 412.122 104.441C413.823 104.516 415.519 104.209 417.085 103.543C416.685 102.464 416.148 101.442 415.487 100.5C412.111 100.077 408.685 100.631 405.616 102.097Z" fill="#222222"/>
<path d="M423.673 113.729C419.256 117.743 408.423 116.265 408.423 116.265C408.423 116.265 401.663 114.409 403.077 112.305C407.063 111.646 408.996 109.79 409.784 107.406C410.225 105.934 410.364 104.39 410.195 102.863C410.126 102.013 410.014 101.167 409.86 100.327L423.252 90.422C421.491 96.9609 419.353 108.981 423.673 113.729Z" fill="#E4897B"/>
<path d="M405.616 86.6669L403.682 87.4007L404.644 83.4514C404.644 83.4514 401.803 79.1354 404.644 75.3912C404.644 75.3912 396.824 73.0173 401.242 68.917C402.883 67.3848 404.924 68.917 410.314 66.5648C413.251 65.2915 422.399 65.1944 422.863 68.917C422.863 68.917 429.462 68.917 430.164 80.1388C430.374 83.4259 429.858 86.7187 428.652 89.7842C427.446 92.8498 425.581 95.6129 423.187 97.878C423.187 97.878 415.217 99.7554 411.307 96.5615C407.398 93.3676 405.616 86.6669 405.616 86.6669Z" fill="#222222"/>
<path d="M410.713 87.3144C410.543 88.1588 410.186 88.9544 409.668 89.6433C409.15 90.3321 408.485 90.8968 407.721 91.296C405.896 92.0729 404.697 89.5048 404.957 86.8073C405.216 84.4118 406.447 81.0453 408.402 81.4985C410.357 81.9517 411.35 84.8974 410.713 87.3144Z" fill="#E4897B"/>
<path opacity="0.2" d="M403.801 239.607C404.816 252.383 405.961 265.676 407.041 276.726C408.683 260.767 410.692 249.394 410.692 249.394C410.692 249.394 412.571 247.851 417.744 239.607C422.917 231.364 417.744 215.955 417.744 215.955C417.96 230.263 403.801 239.607 403.801 239.607Z" fill="#222222"/>
<path d="M375.688 373.6L376.336 377.344H392.061V373.881L375.688 373.6Z" fill="#7E57C2"/>
<path d="M422.399 375.035L423.9 378.499H437.098L437.962 375.035H422.399Z" fill="#7E57C2"/>
<path d="M431.838 201.151V208.219L381.37 204.679V198.41L431.838 201.151Z" fill="#7E57C2"/>
<path opacity="0.2" d="M431.838 201.151V208.219L381.37 204.679V198.41L431.838 201.151Z" fill="white"/>
<path d="M404.924 111.366C404.924 111.366 410.454 106.532 420.044 108.905C429.635 111.279 428.447 118.034 428.447 118.034L404.924 111.366Z" fill="#7E57C2"/>
<path d="M335.47 116.534L327.1 110.74C325.899 109.304 324.516 108.03 322.985 106.952C321.16 105.873 309.895 104.072 309.28 104.794C308.664 105.517 308.675 111.269 309.895 112.585C311.116 113.901 320.695 115.293 321.16 115.293C321.846 115.219 322.527 115.107 323.201 114.959L331.517 121.67L335.47 116.534Z" fill="#E4897B"/>
<path d="M334.4 115.542L329.227 111.279L324.054 116.534L329.227 122.221L334.4 115.542Z" fill="#7E57C2"/>
<path opacity="0.2" d="M404.924 111.366C404.924 111.366 410.454 106.532 420.044 108.905C429.635 111.279 428.447 118.034 428.447 118.034L404.924 111.366Z" fill="white"/>
<path opacity="0.2" d="M334.4 115.542L329.227 111.279L324.054 116.534L329.227 122.221L334.4 115.542Z" fill="white"/>
<path d="M378.907 195.303C378.862 195.938 378.944 196.575 379.148 197.178C379.353 197.781 379.676 198.337 380.099 198.813C380.521 199.29 381.035 199.677 381.609 199.952C382.183 200.228 382.807 200.386 383.443 200.417L430.812 202.726C431.173 202.745 431.534 202.691 431.873 202.566C432.213 202.441 432.523 202.249 432.786 202.001C433.048 201.753 433.258 201.454 433.401 201.122C433.545 200.79 433.619 200.433 433.62 200.072C433.922 171.262 443.794 122.113 437.054 116.901C430.078 111.506 395.874 108.69 395.874 108.69C394.27 112.46 392.871 116.314 391.684 120.235C391.532 120.732 391.37 121.228 391.23 121.735C389.264 128.209 387.612 135.201 386.197 142.29C386.089 142.765 386.003 143.24 385.906 143.715C382.586 160.763 380.249 177.987 378.907 195.303Z" fill="#7E57C2"/>
<path opacity="0.3" d="M433.62 200.072C433.619 200.434 433.544 200.792 433.4 201.125C433.256 201.457 433.046 201.757 432.782 202.005C432.518 202.253 432.206 202.445 431.866 202.569C431.525 202.694 431.163 202.747 430.801 202.726L383.4 200.417C382.763 200.386 382.14 200.228 381.565 199.952C380.991 199.677 380.478 199.29 380.055 198.813C379.633 198.337 379.31 197.781 379.105 197.178C378.9 196.575 378.818 195.938 378.864 195.303C380.206 177.987 382.543 160.763 385.862 143.715C385.959 143.24 386.046 142.765 386.154 142.29C386.622 139.967 387.115 137.661 387.633 135.374C388.713 130.68 389.869 126.094 391.187 121.735C391.327 121.228 391.489 120.732 391.64 120.235C391.791 119.739 391.964 119.156 392.115 118.681C393.26 115.142 394.502 111.776 395.831 108.69C395.831 108.69 430.034 111.517 437.011 116.901C443.793 122.113 433.922 171.262 433.62 200.072Z" fill="#222222"/>
<path opacity="0.2" d="M387.72 135.374C388.8 130.68 389.955 126.094 391.273 121.735C391.413 121.228 391.575 120.732 391.727 120.235C391.878 119.739 392.051 119.156 392.202 118.682L394.913 118.034C394.913 118.034 395.733 128.501 387.72 135.374Z" fill="#222222"/>
<path d="M395.874 108.69C401.609 108.204 389.502 127.853 389.502 127.853C389.502 127.853 362.416 140.327 354.24 140.564C347.76 140.747 333.828 128.231 328.126 122.836C327.798 122.526 327.537 122.153 327.359 121.739C327.181 121.326 327.089 120.88 327.089 120.43C327.089 119.979 327.181 119.533 327.359 119.12C327.537 118.706 327.798 118.333 328.126 118.023L331.366 114.959C331.904 114.443 332.601 114.124 333.343 114.052C334.085 113.979 334.831 114.158 335.459 114.56C340.2 117.613 351.346 124.584 354.24 124.627C357.847 124.67 386.996 109.434 395.874 108.69Z" fill="#7E57C2"/>
<path opacity="0.3" d="M395.874 108.69C401.609 108.204 389.502 127.853 389.502 127.853C389.502 127.853 362.416 140.327 354.24 140.564C347.76 140.747 333.828 128.231 328.126 122.836C327.798 122.526 327.537 122.153 327.359 121.739C327.181 121.326 327.089 120.88 327.089 120.43C327.089 119.979 327.181 119.533 327.359 119.12C327.537 118.706 327.798 118.333 328.126 118.023L331.366 114.959C331.904 114.443 332.601 114.124 333.343 114.052C334.085 113.979 334.831 114.158 335.459 114.56C340.2 117.613 351.346 124.584 354.24 124.627C357.847 124.67 386.996 109.434 395.874 108.69Z" fill="#222222"/>
<path d="M88.4737 110.61C88.4737 110.61 91.6057 104.503 102.265 106.672C112.925 108.841 117.137 115.725 116.305 124.023C115.474 132.32 112.882 137.068 114.577 141.017C115.43 142.981 120.399 141.557 120.399 141.557C120.399 141.557 118.076 144.405 109.728 145.56C100.872 146.768 88.7545 149.164 83.6353 142.237C78.5161 135.309 88.4737 110.61 88.4737 110.61Z" fill="#222222"/>
<path d="M150.325 382.081L143.834 383.225L141.167 374.377L138.737 366.252L146.221 363.63L148.403 373.395L150.325 382.081Z" fill="#E4897B"/>
<path opacity="0.2" d="M148.435 373.6L141.199 374.55L138.748 366.338L146.232 363.684L148.435 373.6Z" fill="#222222"/>
<path d="M106.942 385.07H100.343L99.2631 375.791L98.2803 367.31L106.121 366.015L106.564 376.104L106.942 385.07Z" fill="#E4897B"/>
<path opacity="0.2" d="M106.564 376.179L99.2631 375.866L98.2803 367.353L106.121 366.036L106.564 376.179Z" fill="#222222"/>
<path d="M149.04 368.453L138.359 370.331C127.559 343.496 119.913 310.305 114.491 291.724C111.575 281.689 109.091 272.777 107.395 264.857L107.719 294.066V370.676H97.2002C70.805 245.1 89.5106 205.694 89.5106 205.694L121.079 200.439C122.327 206.288 123.21 212.209 123.725 218.167L125.151 228.623L137.484 292.285L149.04 368.453Z" fill="#222222"/>
<g opacity="0.2">
<path opacity="0.2" d="M149.04 368.453L138.359 370.331C127.559 343.496 119.913 310.305 114.491 291.724C111.575 281.689 109.091 272.777 107.395 264.857L107.719 294.066V370.676H97.2002C70.805 245.1 89.5106 205.694 89.5106 205.694L121.079 200.439C122.327 206.288 123.21 212.209 123.725 218.167L125.151 228.623L137.484 292.285L149.04 368.453Z" fill="#222222"/>
</g>
<path d="M182.52 143.38L196.193 137.262C196.193 137.262 197.532 134.748 198.774 134.381C200.016 134.014 207.792 134.079 208.418 134.942C209.045 135.806 208.148 141.773 206.593 142.344C205.038 142.916 198.331 141.891 197.737 141.535L182.142 150.308L182.52 143.38Z" fill="#EEC1BB"/>
<path opacity="0.2" d="M114.48 291.724C111.564 281.689 109.296 272.777 107.546 264.857C107.692 255.474 108.373 246.107 109.588 236.802C109.588 236.802 114.232 272.992 114.48 291.724Z" fill="#222222"/>
<path d="M80.6653 254.077L54.8965 259.397C54.7521 259.429 54.6159 259.491 54.4963 259.578C54.3768 259.665 54.2764 259.776 54.2015 259.903C54.1265 260.031 54.0786 260.172 54.0607 260.319C54.0428 260.466 54.0552 260.615 54.0973 260.756L59.2489 277.308C59.3307 277.556 59.4993 277.765 59.7236 277.898C59.9479 278.031 60.2128 278.078 60.4693 278.031L86.0869 273.111C86.2308 273.081 86.3671 273.022 86.4873 272.937C86.6075 272.852 86.7091 272.744 86.786 272.619C86.8629 272.494 86.9133 272.354 86.9342 272.209C86.9551 272.063 86.9461 271.915 86.9077 271.773L81.9073 254.789C81.823 254.54 81.6502 254.329 81.4214 254.198C81.1926 254.067 80.9236 254.024 80.6653 254.077Z" fill="#7E57C2"/>
<path opacity="0.6" d="M80.6653 254.077L54.8965 259.397C54.7521 259.429 54.6159 259.491 54.4963 259.578C54.3768 259.665 54.2764 259.776 54.2015 259.903C54.1265 260.031 54.0786 260.172 54.0607 260.319C54.0428 260.466 54.0552 260.615 54.0973 260.756L59.2489 277.308C59.3307 277.556 59.4993 277.765 59.7236 277.898C59.9479 278.031 60.2128 278.078 60.4693 278.031L86.0869 273.111C86.2308 273.081 86.3671 273.022 86.4873 272.937C86.6075 272.852 86.7091 272.744 86.786 272.619C86.8629 272.494 86.9133 272.354 86.9342 272.209C86.9551 272.063 86.9461 271.915 86.9077 271.773L81.9073 254.789C81.823 254.54 81.6502 254.329 81.4214 254.198C81.1926 254.067 80.9236 254.024 80.6653 254.077Z" fill="white"/>
<path d="M80.1902 254.714L54.4214 260.044C54.277 260.076 54.1408 260.138 54.0212 260.225C53.9017 260.312 53.8013 260.423 53.7264 260.551C53.6514 260.678 53.6035 260.82 53.5856 260.966C53.5677 261.113 53.5801 261.262 53.6222 261.404L58.7738 277.977C58.8535 278.227 59.0212 278.439 59.2458 278.574C59.4703 278.709 59.7363 278.758 59.9942 278.711L85.6226 273.791C85.7677 273.761 85.9051 273.701 86.0262 273.616C86.1473 273.531 86.2495 273.421 86.3265 273.295C86.4035 273.168 86.4536 273.027 86.4737 272.881C86.4938 272.734 86.4835 272.585 86.4434 272.442L81.4322 255.458C81.3543 255.202 81.1841 254.985 80.9546 254.847C80.7252 254.71 80.4527 254.662 80.1902 254.714Z" fill="#7E57C2"/>
<path opacity="0.7" d="M80.1902 254.714L54.4214 260.044C54.277 260.076 54.1408 260.138 54.0212 260.225C53.9017 260.312 53.8013 260.423 53.7264 260.551C53.6514 260.678 53.6035 260.82 53.5856 260.966C53.5677 261.113 53.5801 261.262 53.6222 261.404L58.7738 277.977C58.8535 278.227 59.0212 278.439 59.2458 278.574C59.4703 278.709 59.7363 278.758 59.9942 278.711L85.6226 273.791C85.7677 273.761 85.9051 273.701 86.0262 273.616C86.1473 273.531 86.2495 273.421 86.3265 273.295C86.4035 273.168 86.4536 273.027 86.4737 272.881C86.4938 272.734 86.4835 272.585 86.4434 272.442L81.4322 255.458C81.3543 255.202 81.1841 254.985 80.9546 254.847C80.7252 254.71 80.4527 254.662 80.1902 254.714Z" fill="white"/>
<path opacity="0.2" d="M70.5892 269.119C70.0909 269.233 69.57 269.196 69.0926 269.014C68.6152 268.832 68.2026 268.512 67.9072 268.095C67.6119 267.678 67.447 267.183 67.4335 266.673C67.42 266.162 67.5585 265.659 67.8314 265.228C68.1044 264.796 68.4994 264.455 68.9666 264.248C69.4337 264.04 69.9519 263.977 70.4555 264.064C70.9591 264.151 71.4253 264.386 71.7952 264.738C72.1651 265.091 72.4219 265.545 72.5332 266.043C72.5382 266.076 72.5382 266.108 72.5332 266.141C71.9821 266.36 71.5246 266.765 71.239 267.284C70.9533 267.804 70.8572 268.407 70.9671 268.989C70.8443 269.041 70.718 269.084 70.5892 269.119Z" fill="#222222"/>
<path d="M67.4893 236.759L71.1829 251.261C71.1829 251.261 73.4293 253.009 73.5805 254.293C73.7317 255.577 72.3277 263.216 71.4205 263.691C70.5133 264.166 64.7353 262.245 64.4329 260.627C64.1305 259.008 66.3121 252.566 66.7549 251.995L60.7285 235.227L67.4893 236.759Z" fill="#EEC1BB"/>
<path d="M121.846 198.54C123.142 175.881 122.559 163.418 121.976 157.192C121.328 150.556 120.312 150.308 120.312 150.308C120.312 150.308 113.109 149.606 106.845 149.66C101.994 149.821 97.1613 150.33 92.3835 151.182C87.8578 151.936 83.3928 153.018 79.0239 154.419C79.7583 156.501 80.4171 158.476 81.0327 160.343C81.8535 162.803 82.5879 165.08 83.1927 167.205C84.4347 171.176 85.3527 174.618 86.1735 177.704C88.1457 185.414 89.3076 193.308 89.6403 201.259C89.6403 201.259 81.7131 221.955 80.1687 237.137C80.1687 237.137 101.369 241.582 109.728 240.622C116.139 239.709 122.395 237.93 128.326 235.335L121.846 198.54Z" fill="#222222"/>
<path opacity="0.1" d="M121.846 198.54C123.142 175.881 122.559 163.418 121.976 157.192C121.328 150.556 120.312 150.308 120.312 150.308C120.312 150.308 113.109 149.606 106.845 149.66C101.994 149.821 97.1613 150.33 92.3835 151.182C87.8578 151.936 83.3928 153.018 79.0239 154.419C79.7583 156.501 80.4171 158.476 81.0327 160.343C81.8535 162.803 82.5879 165.08 83.1927 167.205C84.4347 171.176 85.3527 174.618 86.1735 177.704C88.1457 185.414 89.3076 193.308 89.6403 201.259C89.6403 201.259 81.7131 221.955 80.1687 237.137C80.1687 237.137 101.369 241.582 109.728 240.622C116.139 239.709 122.395 237.93 128.326 235.335L121.846 198.54Z" fill="white"/>
<path d="M106.477 150.987C106.166 150.82 105.841 150.679 105.505 150.567C104.76 149.984 103.853 148.57 103.896 145.172C103.93 143.823 104.057 142.478 104.274 141.147L94.7161 139.366C94.7161 139.366 97.9561 145.841 95.2561 150.556C94.3273 150.977 93.7657 151.559 93.8629 152.336C94.5865 157.861 106.445 163.126 106.445 163.126C106.445 163.126 112.245 154.149 106.477 150.987Z" fill="#EEC1BB"/>
<path opacity="0.2" d="M104.274 141.114C104.057 142.446 103.931 143.791 103.896 145.139C97.4163 145.139 94.7163 139.334 94.7163 139.334L104.274 141.114Z" fill="#222222"/>
<path d="M98.9929 114.43C107.298 113.977 110.214 118.272 111.283 126.785C112.633 137.435 110.679 145.128 100.17 143.434C85.9033 141.114 85.2013 115.186 98.9929 114.43Z" fill="#EEC1BB"/>
<path d="M105.894 126.623C106.627 127.823 107.501 128.932 108.497 129.925C108.273 130.288 107.952 130.581 107.571 130.772C107.189 130.963 106.762 131.043 106.337 131.004L105.894 126.623Z" fill="#D4827D"/>
<path d="M100.775 126.246C100.775 126.925 100.505 127.508 100.051 127.54C99.5977 127.573 99.1873 127.055 99.1333 126.375C99.0793 125.695 99.4033 125.113 99.8569 125.069C100.311 125.026 100.721 125.544 100.775 126.246Z" fill="#222222"/>
<path d="M99.6733 125.102L101.11 124.4C101.11 124.4 100.44 125.707 99.6733 125.102Z" fill="#222222"/>
<path d="M109.231 125.415C109.231 126.094 108.961 126.677 108.508 126.71C108.054 126.742 107.644 126.224 107.59 125.544C107.536 124.864 107.86 124.282 108.313 124.249C108.767 124.217 109.177 124.735 109.231 125.415Z" fill="#222222"/>
<path d="M108.13 124.293L109.566 123.602C109.566 123.602 108.918 124.909 108.13 124.293Z" fill="#222222"/>
<path d="M96.8438 122.318C96.7651 122.319 96.6887 122.292 96.6278 122.242C96.549 122.184 96.4959 122.097 96.4798 122.001C96.4636 121.904 96.4857 121.805 96.5414 121.724C97.0203 121.171 97.6228 120.739 98.3001 120.461C98.9774 120.184 99.7105 120.069 100.44 120.127C100.489 120.13 100.537 120.143 100.581 120.164C100.624 120.186 100.663 120.217 100.694 120.254C100.726 120.292 100.749 120.335 100.763 120.382C100.777 120.429 100.781 120.478 100.775 120.527C100.774 120.575 100.763 120.623 100.742 120.666C100.721 120.71 100.692 120.749 100.655 120.78C100.618 120.812 100.575 120.835 100.529 120.849C100.483 120.863 100.434 120.867 100.386 120.861C99.7825 120.82 99.1774 120.916 98.6163 121.143C98.0551 121.369 97.5525 121.719 97.1462 122.167C97.111 122.214 97.0653 122.252 97.0128 122.278C96.9603 122.304 96.9025 122.318 96.8438 122.318Z" fill="#222222"/>
<path d="M109.739 120.689C109.679 120.704 109.616 120.704 109.555 120.689C109.121 120.388 108.625 120.189 108.103 120.107C107.581 120.025 107.048 120.061 106.542 120.214C106.497 120.233 106.448 120.243 106.399 120.243C106.35 120.243 106.301 120.233 106.256 120.214C106.21 120.195 106.169 120.167 106.135 120.132C106.101 120.096 106.074 120.055 106.056 120.009C106.035 119.965 106.024 119.918 106.022 119.869C106.021 119.821 106.029 119.773 106.048 119.728C106.066 119.683 106.094 119.643 106.129 119.61C106.163 119.576 106.205 119.55 106.251 119.534C106.863 119.331 107.514 119.273 108.153 119.362C108.791 119.452 109.401 119.688 109.933 120.052C110.008 120.091 110.066 120.155 110.099 120.232C110.133 120.309 110.138 120.395 110.115 120.476C110.093 120.557 110.043 120.627 109.974 120.676C109.906 120.724 109.823 120.748 109.739 120.743V120.689Z" fill="#222222"/>
<path d="M90.7201 128.911C90.7201 128.911 94.2193 121.886 93.3445 116.653C93.3445 116.653 109.437 109.035 111.165 125.684C111.165 125.684 111.953 110.772 97.6645 111.226C83.3761 111.679 84.5749 132.536 92.2645 138.352C92.2537 138.352 88.5601 133.302 90.7201 128.911Z" fill="#222222"/>
<path d="M92.1352 130.562C92.001 129.606 91.4944 128.742 90.7258 128.158C89.9571 127.574 88.9886 127.317 88.0312 127.443C85.4716 127.864 84.532 133.216 91.012 134.133C91.93 134.295 92.4052 133.367 92.1352 130.562Z" fill="#EEC1BB"/>
<path d="M104.382 136.248C102.588 136.196 100.88 135.463 99.6084 134.198C99.5411 134.126 99.505 134.031 99.508 133.933C99.511 133.835 99.553 133.742 99.6246 133.674C99.6962 133.607 99.7916 133.571 99.8898 133.574C99.9881 133.577 100.081 133.619 100.148 133.691C101.346 134.86 102.956 135.511 104.63 135.503C104.685 135.494 104.74 135.497 104.793 135.511C104.846 135.526 104.896 135.552 104.938 135.587C104.98 135.623 105.014 135.667 105.037 135.717C105.06 135.766 105.072 135.821 105.072 135.876C105.072 135.931 105.06 135.985 105.037 136.035C105.014 136.085 104.98 136.129 104.938 136.164C104.896 136.2 104.846 136.226 104.793 136.24C104.74 136.255 104.685 136.257 104.63 136.248H104.382Z" fill="#222222"/>
<path d="M96.2172 114.376C96.2172 114.376 97.7616 120.322 89.5104 127.53C81.2592 134.737 85.8168 145.733 90.1692 146.898C90.1692 146.898 82.6092 145.916 79.0236 141.406C73.8936 134.867 80.3196 131.047 81.1836 125.026C82.0476 119.005 79.2828 114.937 83.6352 110.589C87.9876 106.24 97.5132 107.902 96.2172 114.376Z" fill="#222222"/>
<path d="M85.3742 129.914C85.3203 129.914 85.2678 129.897 85.2235 129.866C85.1792 129.835 85.1452 129.792 85.1258 129.742C85.1009 129.676 85.1028 129.603 85.131 129.538C85.1593 129.474 85.2117 129.423 85.277 129.396C90.677 127.335 94.133 124.487 95.6882 120.926C96.7228 118.606 96.8651 115.986 96.0878 113.567C96.0738 113.534 96.0666 113.498 96.0667 113.462C96.0667 113.426 96.074 113.39 96.0881 113.357C96.1022 113.324 96.1228 113.294 96.1488 113.269C96.1747 113.244 96.2054 113.224 96.239 113.211C96.3049 113.186 96.378 113.188 96.4426 113.216C96.5072 113.244 96.5581 113.297 96.5846 113.362C97.4257 115.915 97.2832 118.689 96.185 121.142C94.565 124.843 90.9578 127.789 85.4714 129.903L85.3742 129.914Z" fill="#222222"/>
<path d="M87.7501 152.013C87.7501 152.013 100.062 171.942 100.008 188.408C99.9541 204.874 83.0953 218.383 83.0953 218.383L86.6269 199.177L79.0669 154.354L87.7501 152.013Z" fill="#7E57C2"/>
<path d="M116.068 149.606C116.068 149.606 113.4 178.664 115.236 188.451C117.072 198.238 126.241 217.164 126.241 217.164L123.001 196.662C123.001 196.662 125.345 167.701 120.841 150.264L116.068 149.606Z" fill="#7E57C2"/>
<path d="M120.874 150.254C120.874 150.254 150.088 154.041 154.354 154.041C158.62 154.041 191.204 138.935 191.204 138.935L195.426 143.65C195.426 143.65 167.541 164.518 156.935 166.169C146.33 167.82 120.874 167.583 120.874 167.583V150.254Z" fill="#7E57C2"/>
<path d="M79.0238 154.354C73.2566 155.67 55.5986 201.097 55.5986 207.841C55.5986 214.585 62.6402 248.24 62.6402 248.24L71.4314 246.179C71.4314 246.179 66.809 210.873 68.4398 207.841C70.0706 204.809 84.9206 172.773 84.9206 172.773C84.5992 168.751 83.9819 164.759 83.0738 160.828C81.6806 155.131 79.0238 154.354 79.0238 154.354Z" fill="#7E57C2"/>
<path d="M141.761 378.92C141.761 378.154 151.222 378.92 151.222 378.92C151.222 378.92 156.946 384.908 162.562 386.322C168.178 387.735 164.981 391.07 158.674 390.972L143.078 390.735C138.607 390.606 141.48 386.872 141.761 378.92Z" fill="#222222"/>
<path d="M155.52 381.304C154.398 381.039 153.311 380.644 152.28 380.128L152.204 380.074V379.988C152.204 379.988 152.204 379.988 152.204 379.934C152.199 379.898 152.199 379.862 152.204 379.826C152.204 379.729 153.068 377.549 154.364 377.032C154.556 376.944 154.764 376.899 154.975 376.899C155.185 376.899 155.393 376.944 155.585 377.032C156.006 377.237 156.211 377.506 156.19 377.83C156.19 378.326 155.477 378.812 154.699 379.211C155.429 379.092 156.178 379.182 156.859 379.47C157.103 379.613 157.282 379.845 157.356 380.117C157.42 380.29 157.431 380.479 157.387 380.658C157.343 380.837 157.245 380.998 157.108 381.121C156.871 381.261 156.607 381.35 156.333 381.381C156.06 381.413 155.783 381.387 155.52 381.304ZM153.176 379.977C154.559 380.592 156.287 381.132 156.73 380.776C156.73 380.776 156.892 380.646 156.805 380.279C156.788 380.207 156.754 380.14 156.707 380.082C156.661 380.024 156.602 379.977 156.535 379.945C155.812 379.546 154.192 379.815 153.122 379.977H153.176ZM155.066 377.42C154.884 377.388 154.696 377.41 154.526 377.485C153.774 377.959 153.195 378.663 152.874 379.492C154.278 378.974 155.639 378.262 155.671 377.841C155.671 377.711 155.466 377.582 155.336 377.517C155.233 377.471 155.124 377.439 155.012 377.42H155.066Z" fill="#7E57C2"/>
<path d="M98.28 379.967C98.28 379.2 107.741 379.805 107.741 379.805C107.741 379.805 113.551 385.707 119.189 387.034C124.826 388.361 121.673 391.739 115.376 391.739H99.7812C95.2992 391.739 98.0964 387.93 98.28 379.967Z" fill="#222222"/>
<path d="M112.709 382.222C111.346 382.053 110.023 381.647 108.8 381.024C108.765 381.011 108.735 380.989 108.713 380.959V380.905C108.699 380.875 108.692 380.842 108.692 380.808C108.692 380.775 108.699 380.742 108.713 380.711C108.713 380.625 109.534 378.423 110.819 377.884C111.011 377.797 111.219 377.751 111.429 377.751C111.64 377.751 111.848 377.797 112.04 377.884C112.472 378.078 112.677 378.348 112.655 378.672C112.655 379.168 111.953 379.664 111.186 380.074C111.913 379.947 112.662 380.025 113.346 380.301C113.594 380.441 113.777 380.674 113.854 380.948C113.922 381.119 113.937 381.306 113.897 381.485C113.856 381.665 113.762 381.827 113.627 381.952C113.367 382.157 113.039 382.253 112.709 382.222ZM109.653 380.894C111.046 381.488 112.774 381.973 113.228 381.639C113.228 381.639 113.379 381.51 113.228 381.143C113.21 381.071 113.176 381.003 113.13 380.945C113.083 380.888 113.024 380.841 112.958 380.808C112.32 380.387 110.722 380.625 109.653 380.894ZM111.348 378.305C111.215 378.304 111.083 378.329 110.96 378.38C110.221 378.871 109.655 379.581 109.34 380.409C110.744 379.88 112.094 379.146 112.115 378.715C112.115 378.585 111.91 378.467 111.78 378.402C111.647 378.329 111.5 378.285 111.348 378.272V378.305Z" fill="#7E57C2"/>
</svg>
