<svg width="539" height="410" viewBox="0 0 539 410" fill="none" xmlns="http://www.w3.org/2000/svg">
<path d="M539 361.404H-0.000488281V361.673H539V361.404Z" fill="#E0E0E0"/>
<path d="M408.919 371.325H371.835V371.595H408.919V371.325Z" fill="#E0E0E0"/>
<path d="M452.545 370.561H431.675V370.831H452.545V370.561Z" fill="#E0E0E0"/>
<path d="M266.633 371.196H238.95V371.466H266.633V371.196Z" fill="#E0E0E0"/>
<path d="M286.629 375.016H267.721V375.286H286.629V375.016Z" fill="#E0E0E0"/>
<path d="M155.954 368.474H98.8306V368.743H155.954V368.474Z" fill="#E0E0E0"/>
<path d="M255.486 313.41H47.3346C45.7039 313.408 44.141 312.759 42.989 311.607C41.837 310.455 41.1899 308.894 41.1899 307.266V15.1835C41.2041 13.5651 41.8574 12.0177 43.0079 10.8773C44.1584 9.73689 45.7132 9.09567 47.3346 9.0929H255.486C257.118 9.0929 258.684 9.74026 259.838 10.8926C260.993 12.0449 261.641 13.6077 261.641 15.2374V307.266C261.641 308.896 260.993 310.458 259.838 311.611C258.684 312.763 257.118 313.41 255.486 313.41ZM47.3346 9.30811C45.7754 9.31096 44.2811 9.93124 43.1796 11.0328C42.0781 12.1343 41.4594 13.6271 41.4594 15.1835V307.266C41.4594 308.822 42.0781 310.315 43.1796 311.417C44.2811 312.518 45.7754 313.138 47.3346 313.141H255.486C257.046 313.138 258.541 312.519 259.645 311.417C260.748 310.316 261.369 308.823 261.372 307.266V15.1835C261.369 13.6262 260.748 12.1334 259.645 11.0321C258.541 9.93089 257.046 9.31096 255.486 9.30811H47.3346Z" fill="#E0E0E0"/>
<path d="M488.669 313.41H280.506C278.875 313.408 277.311 312.759 276.157 311.608C275.003 310.456 274.354 308.895 274.351 307.266V15.1835C274.368 13.5642 275.024 12.0167 276.176 10.8766C277.328 9.73651 278.884 9.09564 280.506 9.0929H488.669C490.288 9.0985 491.84 9.74097 492.988 10.8811C494.136 12.0212 494.788 13.567 494.802 15.1835V307.266C494.802 308.892 494.157 310.451 493.007 311.603C491.857 312.755 490.297 313.405 488.669 313.41ZM280.506 9.30811C278.946 9.31096 277.451 9.93089 276.348 11.0321C275.244 12.1334 274.623 13.6262 274.621 15.1835V307.266C274.623 308.823 275.244 310.316 276.348 311.417C277.451 312.519 278.946 313.138 280.506 313.141H488.669C490.229 313.138 491.724 312.519 492.827 311.417C493.931 310.316 494.552 308.823 494.554 307.266V15.1835C494.552 13.6262 493.931 12.1334 492.827 11.0321C491.724 9.93089 490.229 9.31096 488.669 9.30811H280.506Z" fill="#E0E0E0"/>
<path d="M467.884 35.2096H305.429V174.627H467.884V35.2096Z" fill="#E0E0E0"/>
<path d="M471.495 35.2096H309.041V174.627H471.495V35.2096Z" fill="#F0F0F0"/>
<path d="M465.017 168.085V41.7522L315.52 41.7522V168.085H465.017Z" fill="#FAFAFA"/>
<path d="M417.24 168.085V41.7523H407.473V168.085H417.24Z" fill="#E0E0E0"/>
<path d="M365.863 168.085V41.7522H356.096V168.085H365.863Z" fill="#E0E0E0"/>
<path d="M420.679 172.228V36.8776H410.912V172.228H420.679Z" fill="#F0F0F0"/>
<path d="M369.291 172.238V36.8882H359.524V172.238H369.291Z" fill="#F0F0F0"/>
<path d="M465.017 168.074V41.7415H462.29V168.074H465.017Z" fill="#E0E0E0"/>
<path d="M191.173 145.315C191.173 145.315 171.402 111.321 198.837 84.2146C198.837 84.2146 205.995 88.8741 205.887 95.1369C205.78 101.4 198.212 102.982 199.84 108.211C201.468 113.441 208.593 118.553 203.915 122.878C199.236 127.204 204.669 131.035 204.357 136.33C204.044 141.624 191.173 145.315 191.173 145.315Z" fill="#E0E0E0"/>
<path d="M194.277 150.878C194.277 150.878 202.298 112.376 167.715 95.3091C167.715 95.3091 162.39 101.981 164.481 107.889C166.573 113.796 174.237 112.914 174.345 118.391C174.453 123.868 169.311 130.971 175.11 133.596C180.91 136.222 176.975 141.581 178.948 146.509C180.921 151.438 194.277 150.878 194.277 150.878Z" fill="#E6E6E6"/>
<path d="M176.673 141.097C176.673 141.097 177.018 174.337 190.332 174.337C203.645 174.337 203.979 141.097 203.979 141.097H176.673Z" fill="#F0F0F0"/>
<path d="M96.6851 161.833C96.6851 161.833 97.4289 174.337 125.856 174.337C154.283 174.337 155.037 161.833 155.037 161.833H96.6851Z" fill="#E6E6E6"/>
<path d="M396.38 237.223H381.375C379.505 237.223 377.99 238.736 377.99 240.602V265.374C377.99 267.24 379.505 268.753 381.375 268.753H396.38C398.25 268.753 399.765 267.24 399.765 265.374V240.602C399.765 238.736 398.25 237.223 396.38 237.223Z" fill="#F0F0F0"/>
<path d="M436.18 247.532H426.079C424.823 247.532 423.804 248.549 423.804 249.803V266.482C423.804 267.736 424.823 268.753 426.079 268.753H436.18C437.436 268.753 438.454 267.736 438.454 266.482V249.803C438.454 248.549 437.436 247.532 436.18 247.532Z" fill="#E6E6E6"/>
<path d="M437.689 245.477H424.57C424.147 245.477 423.804 245.819 423.804 246.241V247.102C423.804 247.524 424.147 247.866 424.57 247.866H437.689C438.112 247.866 438.454 247.524 438.454 247.102V246.241C438.454 245.819 438.112 245.477 437.689 245.477Z" fill="#F0F0F0"/>
<path d="M343.257 251.213C343.257 251.213 343.796 268.753 364.375 268.753C384.954 268.753 385.504 251.213 385.504 251.213H343.257Z" fill="#E6E6E6"/>
<path d="M292.073 228.044H323.216V221.911H292.073V228.044Z" fill="#E0E0E0"/>
<path d="M478.05 221.922H323.216V228.055H478.05V221.922Z" fill="#F0F0F0"/>
<path d="M292.073 274.886H323.216V268.753H292.073V274.886Z" fill="#E0E0E0"/>
<path d="M478.05 268.753H323.216V274.886H478.05V268.753Z" fill="#F0F0F0"/>
<path d="M303.296 228.044H297.55V361.393H303.296V228.044Z" fill="#E0E0E0"/>
<path d="M328.962 228.044H323.216V361.393H328.962V228.044Z" fill="#F0F0F0"/>
<path d="M458.128 228.044H452.382V361.393H458.128V228.044Z" fill="#E0E0E0"/>
<path d="M478.05 228.044H472.304V361.393H478.05V228.044Z" fill="#F0F0F0"/>
<path d="M96.6859 182.139H67.2349V353.333H96.6859V182.139Z" fill="#E6E6E6"/>
<path d="M218.122 353.323H72.894V361.404H218.122V353.323Z" fill="#E6E6E6"/>
<path d="M96.6854 353.323H223.771L223.771 182.128L96.6854 182.128L96.6854 353.323Z" fill="#F0F0F0"/>
<path d="M108.263 288.639H212.193V246.822H108.263V288.639Z" fill="#E6E6E6"/>
<path d="M108.263 338.074H212.193V296.258H108.263V338.074Z" fill="#E6E6E6"/>
<path d="M171.897 251.406H148.558C147.799 251.403 147.071 251.101 146.534 250.565C145.997 250.028 145.694 249.302 145.691 248.544C145.691 247.784 145.993 247.054 146.53 246.516C147.068 245.977 147.797 245.674 148.558 245.671H171.897C172.659 245.674 173.388 245.977 173.925 246.516C174.463 247.054 174.765 247.784 174.765 248.544C174.762 249.302 174.459 250.028 173.922 250.565C173.384 251.101 172.657 251.403 171.897 251.406Z" fill="#F0F0F0"/>
<path d="M108.263 239.193H212.193V197.376H108.263V239.193Z" fill="#E6E6E6"/>
<path d="M171.897 201.971H148.558C147.797 201.968 147.068 201.664 146.53 201.125C145.993 200.587 145.691 199.858 145.691 199.098C145.694 198.339 145.997 197.613 146.534 197.077C147.071 196.541 147.799 196.238 148.558 196.235H171.897C172.657 196.238 173.384 196.541 173.922 197.077C174.459 197.613 174.762 198.339 174.765 199.098C174.765 199.858 174.463 200.587 173.925 201.125C173.388 201.664 172.659 201.968 171.897 201.971Z" fill="#F0F0F0"/>
<path d="M171.897 300.842H148.558C147.799 300.839 147.071 300.536 146.534 300C145.997 299.464 145.694 298.738 145.691 297.979C145.691 297.219 145.993 296.49 146.53 295.952C147.068 295.413 147.797 295.109 148.558 295.106H171.897C172.659 295.109 173.388 295.413 173.925 295.952C174.463 296.49 174.765 297.219 174.765 297.979C174.762 298.738 174.459 299.464 173.922 300C173.384 300.536 172.657 300.839 171.897 300.842Z" fill="#F0F0F0"/>
<path d="M227.695 174.337H96.6851V182.139H227.695V174.337Z" fill="#E6E6E6"/>
<path d="M63.1161 182.128H96.6851V174.326H63.1161V182.128Z" fill="#E0E0E0"/>
<path d="M129.51 41.7522H81.8628V93.9855H129.51V41.7522Z" fill="#E6E6E6"/>
<path d="M134.674 41.7522H85.4526V93.9855H134.674V41.7522Z" fill="#F0F0F0"/>
<path d="M130.545 89.8641V45.8629H89.5706V89.8641H130.545Z" fill="#FAFAFA"/>
<path d="M120.617 79.2V56.5269H99.5094V79.2H120.617Z" fill="#F0F0F0"/>
<path d="M179.745 26.3318H143.611V65.0817H179.745V26.3318Z" fill="#E6E6E6"/>
<path d="M183.583 26.3318H147.071V65.0817H183.583V26.3318Z" fill="#F0F0F0"/>
<path d="M180.522 62.0257V29.3879L150.133 29.3879V62.0257H180.522Z" fill="#FAFAFA"/>
<path d="M165.322 37.4478L157.01 51.8243H173.633L165.322 37.4478Z" fill="#F0F0F0"/>
<path d="M269.5 410C384.935 410 478.513 404.546 478.513 397.819C478.513 391.091 384.935 385.637 269.5 385.637C154.064 385.637 60.4858 391.091 60.4858 397.819C60.4858 404.546 154.064 410 269.5 410Z" fill="#F5F5F5"/>
<path d="M452.544 106.823H346.792C341.214 106.823 336.691 111.337 336.691 116.906V145.616C336.691 151.185 341.214 155.699 346.792 155.699H452.544C458.123 155.699 462.645 151.185 462.645 145.616V116.906C462.645 111.337 458.123 106.823 452.544 106.823Z" fill="#7E57C2"/>
<path d="M431.567 115.066H348.959C347.983 115.066 347.191 115.856 347.191 116.831V118.768C347.191 119.742 347.983 120.533 348.959 120.533H431.567C432.543 120.533 433.335 119.742 433.335 118.768V116.831C433.335 115.856 432.543 115.066 431.567 115.066Z" fill="#7E57C2"/>
<path d="M405.403 128.237H348.959C347.983 128.237 347.191 129.027 347.191 130.002V131.939C347.191 132.914 347.983 133.704 348.959 133.704H405.403C406.38 133.704 407.171 132.914 407.171 131.939V130.002C407.171 129.027 406.38 128.237 405.403 128.237Z" fill="#7E57C2"/>
<path d="M390.268 141.409H348.959C347.983 141.409 347.191 142.199 347.191 143.173V145.11C347.191 146.085 347.983 146.875 348.959 146.875H390.268C391.245 146.875 392.036 146.085 392.036 145.11V143.173C392.036 142.199 391.245 141.409 390.268 141.409Z" fill="#7E57C2"/>
<path d="M441.464 141.409H400.155C399.178 141.409 398.387 142.199 398.387 143.173V145.11C398.387 146.085 399.178 146.875 400.155 146.875H441.464C442.44 146.875 443.232 146.085 443.232 145.11V143.173C443.232 142.199 442.44 141.409 441.464 141.409Z" fill="#7E57C2"/>
<g opacity="0.5">
<path opacity="0.5" d="M431.567 115.066H348.959C347.983 115.066 347.191 115.856 347.191 116.831V118.768C347.191 119.742 347.983 120.533 348.959 120.533H431.567C432.543 120.533 433.335 119.742 433.335 118.768V116.831C433.335 115.856 432.543 115.066 431.567 115.066Z" fill="white"/>
<path opacity="0.5" d="M405.403 128.237H348.959C347.983 128.237 347.191 129.027 347.191 130.002V131.939C347.191 132.914 347.983 133.704 348.959 133.704H405.403C406.38 133.704 407.171 132.914 407.171 131.939V130.002C407.171 129.027 406.38 128.237 405.403 128.237Z" fill="white"/>
<path opacity="0.5" d="M390.268 141.409H348.959C347.983 141.409 347.191 142.199 347.191 143.173V145.11C347.191 146.085 347.983 146.875 348.959 146.875H390.268C391.245 146.875 392.036 146.085 392.036 145.11V143.173C392.036 142.199 391.245 141.409 390.268 141.409Z" fill="white"/>
<path opacity="0.5" d="M441.462 141.409H400.153C399.176 141.409 398.385 142.199 398.385 143.173V145.11C398.385 146.085 399.176 146.875 400.153 146.875H441.462C442.438 146.875 443.23 146.085 443.23 145.11V143.173C443.23 142.199 442.438 141.409 441.462 141.409Z" fill="white"/>
</g>
<path d="M367.835 95.4274H247.8C239.62 95.4274 232.988 102.047 232.988 110.213V152.309C232.988 160.475 239.62 167.095 247.8 167.095H367.835C376.016 167.095 382.647 160.475 382.647 152.309V110.213C382.647 102.047 376.016 95.4274 367.835 95.4274Z" fill="#7E57C2"/>
<path d="M372.083 107.512H250.98C249.545 107.512 248.382 108.673 248.382 110.105V112.935C248.382 114.368 249.545 115.529 250.98 115.529H372.083C373.517 115.529 374.68 114.368 374.68 112.935V110.105C374.68 108.673 373.517 107.512 372.083 107.512Z" fill="#7E57C2"/>
<path d="M333.716 126.828H250.98C249.545 126.828 248.382 127.989 248.382 129.421V132.251C248.382 133.683 249.545 134.844 250.98 134.844H333.716C335.151 134.844 336.314 133.683 336.314 132.251V129.421C336.314 127.989 335.151 126.828 333.716 126.828Z" fill="#7E57C2"/>
<path d="M311.531 146.143H250.98C249.545 146.143 248.382 147.304 248.382 148.737V151.567C248.382 152.999 249.545 154.16 250.98 154.16H311.531C312.966 154.16 314.129 152.999 314.129 151.567V148.737C314.129 147.304 312.966 146.143 311.531 146.143Z" fill="#7E57C2"/>
<path d="M376.492 146.143H326.041C324.607 146.143 323.443 147.304 323.443 148.737V151.567C323.443 152.999 324.607 154.16 326.041 154.16H376.492C377.927 154.16 379.09 152.999 379.09 151.567V148.737C379.09 147.304 377.927 146.143 376.492 146.143Z" fill="#7E57C2"/>
<g opacity="0.5">
<path opacity="0.5" d="M372.083 107.512H250.98C249.545 107.512 248.382 108.673 248.382 110.105V112.935C248.382 114.368 249.545 115.529 250.98 115.529H372.083C373.517 115.529 374.68 114.368 374.68 112.935V110.105C374.68 108.673 373.517 107.512 372.083 107.512Z" fill="white"/>
<path opacity="0.5" d="M333.716 126.828H250.98C249.545 126.828 248.382 127.989 248.382 129.421V132.251C248.382 133.683 249.545 134.844 250.98 134.844H333.716C335.151 134.844 336.314 133.683 336.314 132.251V129.421C336.314 127.989 335.151 126.828 333.716 126.828Z" fill="white"/>
<path opacity="0.5" d="M311.531 146.143H250.98C249.545 146.143 248.382 147.304 248.382 148.737V151.567C248.382 152.999 249.545 154.16 250.98 154.16H311.531C312.966 154.16 314.129 152.999 314.129 151.567V148.737C314.129 147.304 312.966 146.143 311.531 146.143Z" fill="white"/>
<path opacity="0.5" d="M376.492 146.143H326.041C324.607 146.143 323.443 147.304 323.443 148.737V151.567C323.443 152.999 324.607 154.16 326.041 154.16H376.492C377.927 154.16 379.09 152.999 379.09 151.567V148.737C379.09 147.304 377.927 146.143 376.492 146.143Z" fill="white"/>
</g>
<path d="M293.206 180.083H235.392C231.57 180.083 228.472 183.176 228.472 186.992V273.445C228.472 277.26 231.57 280.353 235.392 280.353H293.206C297.028 280.353 300.126 277.26 300.126 273.445V186.992C300.126 183.176 297.028 180.083 293.206 180.083Z" fill="#7E57C2"/>
<path opacity="0.4" d="M293.206 180.083H235.392C231.57 180.083 228.472 183.176 228.472 186.992V273.445C228.472 277.26 231.57 280.353 235.392 280.353H293.206C297.028 280.353 300.126 277.26 300.126 273.445V186.992C300.126 183.176 297.028 180.083 293.206 180.083Z" fill="#222222"/>
<path d="M290.554 190.543H238.034C237.331 190.543 236.762 191.111 236.762 191.813V193.717C236.762 194.418 237.331 194.987 238.034 194.987H290.554C291.257 194.987 291.826 194.418 291.826 193.717V191.813C291.826 191.111 291.257 190.543 290.554 190.543Z" fill="#FAFAFA"/>
<path d="M273.834 201.239H238.034C237.331 201.239 236.762 201.808 236.762 202.509V204.413C236.762 205.115 237.331 205.683 238.034 205.683H273.834C274.537 205.683 275.106 205.115 275.106 204.413V202.509C275.106 201.808 274.537 201.239 273.834 201.239Z" fill="#FAFAFA"/>
<path d="M290.554 211.946H238.034C237.331 211.946 236.762 212.515 236.762 213.216V215.121C236.762 215.822 237.331 216.39 238.034 216.39H290.554C291.257 216.39 291.826 215.822 291.826 215.121V213.216C291.826 212.515 291.257 211.946 290.554 211.946Z" fill="#FAFAFA"/>
<path d="M257.556 222.642H238.034C237.331 222.642 236.762 223.211 236.762 223.912V225.817C236.762 226.518 237.331 227.087 238.034 227.087H257.556C258.259 227.087 258.828 226.518 258.828 225.817V223.912C258.828 223.211 258.259 222.642 257.556 222.642Z" fill="#FAFAFA"/>
<path d="M284.873 222.642H265.35C264.648 222.642 264.078 223.211 264.078 223.912V225.817C264.078 226.518 264.648 227.087 265.35 227.087H284.873C285.575 227.087 286.145 226.518 286.145 225.817V223.912C286.145 223.211 285.575 222.642 284.873 222.642Z" fill="#FAFAFA"/>
<path d="M290.554 233.35H238.034C237.331 233.35 236.762 233.918 236.762 234.619V236.524C236.762 237.225 237.331 237.794 238.034 237.794H290.554C291.257 237.794 291.826 237.225 291.826 236.524V234.619C291.826 233.918 291.257 233.35 290.554 233.35Z" fill="#FAFAFA"/>
<path d="M290.554 244.046H238.034C237.331 244.046 236.762 244.614 236.762 245.316V247.22C236.762 247.922 237.331 248.49 238.034 248.49H290.554C291.257 248.49 291.826 247.922 291.826 247.22V245.316C291.826 244.614 291.257 244.046 290.554 244.046Z" fill="#FAFAFA"/>
<path d="M281.24 254.753H238.034C237.331 254.753 236.762 255.321 236.762 256.023V257.927C236.762 258.629 237.331 259.197 238.034 259.197H281.24C281.943 259.197 282.512 258.629 282.512 257.927V256.023C282.512 255.321 281.943 254.753 281.24 254.753Z" fill="#FAFAFA"/>
<path d="M258.192 265.449H238.034C237.331 265.449 236.762 266.018 236.762 266.719V268.624C236.762 269.325 237.331 269.893 238.034 269.893H258.192C258.895 269.893 259.464 269.325 259.464 268.624V266.719C259.464 266.018 258.895 265.449 258.192 265.449Z" fill="#FAFAFA"/>
<path d="M308.847 179.47H228.654L264.11 207.631L318.473 228.077V189.058C318.468 186.513 317.451 184.074 315.646 182.277C313.842 180.479 311.396 179.47 308.847 179.47Z" fill="#7E57C2"/>
<path opacity="0.4" d="M308.847 179.47H228.654L264.11 207.631L318.473 228.077V189.058C318.468 186.513 317.451 184.074 315.646 182.277C313.842 180.479 311.396 179.47 308.847 179.47Z" fill="#222222"/>
<path d="M305.343 193.975H246.668C245.787 193.975 245.072 194.688 245.072 195.568V198.538C245.072 199.418 245.787 200.131 246.668 200.131H305.343C306.224 200.131 306.939 199.418 306.939 198.538V195.568C306.939 194.688 306.224 193.975 305.343 193.975Z" fill="#FAFAFA"/>
<path d="M447.531 255.7V199.399C447.531 195.084 444.027 191.587 439.705 191.587H341.769C337.446 191.587 333.942 195.084 333.942 199.399V255.7C333.942 260.014 337.446 263.512 341.769 263.512H439.705C444.027 263.512 447.531 260.014 447.531 255.7Z" fill="#7E57C2"/>
<path d="M465.416 237.858V181.558C465.416 177.243 461.912 173.745 457.59 173.745H359.653C355.331 173.745 351.827 177.243 351.827 181.558V237.858C351.827 242.173 355.331 245.671 359.653 245.671H457.59C461.912 245.671 465.416 242.173 465.416 237.858Z" fill="#7E57C2"/>
<path opacity="0.5" d="M465.416 237.858V181.558C465.416 177.243 461.912 173.745 457.59 173.745H359.653C355.331 173.745 351.827 177.243 351.827 181.558V237.858C351.827 242.173 355.331 245.671 359.653 245.671H457.59C461.912 245.671 465.416 242.173 465.416 237.858Z" fill="white"/>
<path d="M455.477 218.564V183.903C455.477 181.984 453.918 180.428 451.995 180.428H419.989C418.066 180.428 416.507 181.984 416.507 183.903V218.564C416.507 220.484 418.066 222.04 419.989 222.04H451.995C453.918 222.04 455.477 220.484 455.477 218.564Z" fill="#7E57C2"/>
<path opacity="0.7" d="M455.477 218.564V183.903C455.477 181.984 453.918 180.428 451.995 180.428H419.989C418.066 180.428 416.507 181.984 416.507 183.903V218.564C416.507 220.484 418.066 222.04 419.989 222.04H451.995C453.918 222.04 455.477 220.484 455.477 218.564Z" fill="white"/>
<path d="M410.406 235.33V208.772C410.406 207.298 409.209 206.103 407.733 206.103H383.208C381.732 206.103 380.535 207.298 380.535 208.772V235.33C380.535 236.803 381.732 237.998 383.208 237.998H407.733C409.209 237.998 410.406 236.803 410.406 235.33Z" fill="#7E57C2"/>
<path opacity="0.3" d="M410.406 235.33V208.772C410.406 207.298 409.209 206.103 407.733 206.103H383.208C381.732 206.103 380.535 207.298 380.535 208.772V235.33C380.535 236.803 381.732 237.998 383.208 237.998H407.733C409.209 237.998 410.406 236.803 410.406 235.33Z" fill="white"/>
<path d="M395.465 66.9434V52.5991C395.465 48.2131 391.903 44.6576 387.509 44.6576L124.337 44.6576C119.943 44.6576 116.381 48.2131 116.381 52.5991V66.9434C116.381 71.3293 119.943 74.8849 124.337 74.8849L387.509 74.8849C391.903 74.8849 395.465 71.3293 395.465 66.9434Z" fill="#7E57C2"/>
<path opacity="0.5" d="M395.465 66.9434V52.5991C395.465 48.2131 391.903 44.6576 387.509 44.6576L124.337 44.6576C119.943 44.6576 116.381 48.2131 116.381 52.5991V66.9434C116.381 71.3293 119.943 74.8849 124.337 74.8849L387.509 74.8849C391.903 74.8849 395.465 71.3293 395.465 66.9434Z" fill="white"/>
<path d="M345.672 79.9425V69.5367H269.942V79.9425H345.672Z" fill="#7E57C2"/>
<path opacity="0.5" d="M345.672 79.9425V69.5367H269.942V79.9425H345.672Z" fill="white"/>
<path d="M422.619 22.2858V7.94153C422.619 3.55555 419.057 0 414.663 0L151.491 0C147.097 0 143.535 3.55555 143.535 7.94153V22.2858C143.535 26.6718 147.097 30.2273 151.491 30.2273L414.663 30.2273C419.057 30.2273 422.619 26.6718 422.619 22.2858Z" fill="#7E57C2"/>
<path d="M140.528 158.949C139.58 161.101 138.534 163.425 137.618 165.696C136.702 167.967 135.753 170.302 134.923 172.626C133.22 177.157 131.854 181.808 130.837 186.54L130.525 188.262L130.417 188.907C130.417 189.09 130.417 189.327 130.352 189.542C130.311 190.59 130.333 191.639 130.417 192.684C130.622 194.955 130.988 197.387 131.495 199.819C132.4 204.693 133.554 209.719 134.729 214.669L129.199 216.821C126.621 212.13 124.425 207.239 122.634 202.197C121.69 199.572 120.926 196.887 120.348 194.158C120.025 192.649 119.823 191.116 119.745 189.574C119.745 189.144 119.745 188.735 119.745 188.272C119.745 187.81 119.745 187.293 119.82 186.992L120.036 184.84C120.358 182.068 120.851 179.319 121.513 176.608C122.116 173.917 122.892 171.302 123.669 168.72C124.445 166.137 125.415 163.598 126.439 161.101C126.946 159.853 127.517 158.615 128.013 157.378C128.509 156.14 129.091 154.957 129.781 153.633L140.528 158.949Z" fill="#E4897B"/>
<path d="M134.437 213.216L138.641 217.316L129.467 221.62C129.467 221.62 127.247 217.736 128.788 214.227L134.437 213.216Z" fill="#E4897B"/>
<path d="M142.038 223.417L134.287 226.581L129.479 221.577L138.642 217.316L142.038 223.417Z" fill="#E4897B"/>
<path opacity="0.4" d="M299.048 219.005C283.795 217.296 269.393 211.111 257.661 201.231C245.93 191.352 237.396 178.223 233.138 163.502C228.881 148.782 229.091 133.133 233.742 118.532C238.393 103.931 247.277 91.0345 259.269 81.4727C271.262 71.9109 285.826 66.1132 301.119 64.8124C316.412 63.5116 331.748 66.7662 345.188 74.1647C358.629 81.5632 369.57 92.7734 376.629 106.378C383.688 119.983 386.547 135.372 384.846 150.599C383.716 160.715 380.6 170.51 375.675 179.424C370.751 188.338 364.115 196.196 356.147 202.549C348.179 208.902 339.036 213.625 329.238 216.449C319.441 219.272 309.182 220.141 299.048 219.005Z" fill="#FAFAFA"/>
<path opacity="0.4" d="M355.514 80.9648L237.472 175.112C236.977 174.036 236.492 172.96 236.039 171.883C233.079 164.857 231.187 157.429 230.422 149.845L332.38 68.5253C340.75 71.3125 348.577 75.5208 355.514 80.9648Z" fill="#FAFAFA"/>
<path opacity="0.4" d="M382.755 122.211L271.775 210.719C261.232 205.233 252.095 197.398 245.073 187.82L366.251 91.1661C374.062 100.116 379.709 110.737 382.755 122.211Z" fill="#FAFAFA"/>
<path d="M220.332 112.397L219.308 112.053C221.082 106.829 223.311 101.769 225.97 96.9339L226.908 97.4504C224.284 102.232 222.084 107.233 220.332 112.397ZM233.419 87.2814L232.546 86.6465C241.405 74.6889 253 65.0187 266.363 58.4423L266.848 59.4107C253.636 65.9193 242.175 75.4861 233.419 87.3137V87.2814ZM351.557 60.885C348.035 58.9989 344.39 57.3488 340.648 55.9457L341.036 54.9342C344.815 56.3702 348.495 58.0525 352.053 59.9703L351.557 60.885Z" fill="#7E57C2"/>
<path opacity="0.3" d="M220.332 112.397L219.308 112.053C221.082 106.829 223.311 101.769 225.97 96.9339L226.908 97.4504C224.284 102.232 222.084 107.233 220.332 112.397ZM233.419 87.2814L232.546 86.6465C241.405 74.6889 253 65.0187 266.363 58.4423L266.848 59.4107C253.636 65.9193 242.175 75.4861 233.419 87.3137V87.2814ZM351.557 60.885C348.035 58.9989 344.39 57.3488 340.648 55.9457L341.036 54.9342C344.815 56.3702 348.495 58.0525 352.053 59.9703L351.557 60.885Z" fill="#222222"/>
<path d="M387.94 102.433C377.958 81.7669 360.392 65.7279 338.884 57.6408C317.376 49.5537 293.575 50.0388 272.415 58.9954C251.255 67.9521 234.36 84.6934 225.231 105.749C216.103 126.804 215.441 150.559 223.383 172.088C216.182 174.606 209.067 177.307 201.996 180.094C191.798 184.133 181.693 188.351 171.682 192.749C161.678 197.172 151.718 201.68 141.854 206.394C136.906 208.707 132.023 211.15 127.096 213.517C124.533 214.617 122.211 216.207 120.262 218.198C119.207 219.301 118.277 220.517 117.491 221.825C116.532 223.371 115.805 225.05 115.335 226.807C114.524 229.974 114.875 233.325 116.324 236.256C117.773 239.187 120.225 241.504 123.237 242.787C124.909 243.487 126.674 243.944 128.476 244.143C129.998 244.315 131.535 244.315 133.058 244.143C135.824 243.808 138.498 242.934 140.927 241.571C145.81 239.107 150.726 236.729 155.577 234.2C165.279 229.26 174.981 224.106 184.564 218.876C194.148 213.646 203.742 208.169 213.099 202.552C219.567 198.646 226.1 194.654 232.503 190.478C244.799 209.855 264.092 223.767 286.383 229.331C308.675 234.895 332.256 231.685 352.242 220.367C372.227 209.048 387.084 190.488 393.734 168.532C400.384 146.577 398.317 122.909 387.962 102.433H387.94ZM338.934 205.231C326.406 211.404 312.326 213.73 298.474 211.915C284.622 210.1 271.62 204.226 261.113 195.035C250.605 185.845 243.063 173.75 239.441 160.281C235.819 146.812 236.279 132.573 240.764 119.365C245.248 106.157 253.555 94.5723 264.635 86.0769C275.714 77.5814 289.068 72.5561 303.009 71.6365C316.949 70.7168 330.85 73.944 342.953 80.9102C355.056 87.8763 364.818 98.2684 371.005 110.773C375.113 119.077 377.543 128.107 378.155 137.349C378.767 146.59 377.549 155.862 374.571 164.633C371.593 173.405 366.913 181.505 360.798 188.471C354.683 195.437 347.254 201.132 338.934 205.231Z" fill="#7E57C2"/>
<path opacity="0.3" d="M387.94 102.433C377.958 81.7669 360.392 65.7279 338.884 57.6408C317.376 49.5537 293.575 50.0388 272.415 58.9954C251.255 67.9521 234.36 84.6934 225.231 105.749C216.103 126.804 215.441 150.559 223.383 172.088C216.182 174.606 209.067 177.307 201.996 180.094C191.798 184.133 181.693 188.351 171.682 192.749C161.678 197.172 151.718 201.68 141.854 206.394C136.906 208.707 132.023 211.15 127.096 213.517C124.533 214.617 122.211 216.207 120.262 218.198C119.207 219.301 118.277 220.517 117.491 221.825C116.532 223.371 115.805 225.05 115.335 226.807C114.524 229.974 114.875 233.325 116.324 236.256C117.773 239.187 120.225 241.504 123.237 242.787C124.909 243.487 126.674 243.944 128.476 244.143C129.998 244.315 131.535 244.315 133.058 244.143C135.824 243.808 138.498 242.934 140.927 241.571C145.81 239.107 150.726 236.729 155.577 234.2C165.279 229.26 174.981 224.106 184.564 218.876C194.148 213.646 203.742 208.169 213.099 202.552C219.567 198.646 226.1 194.654 232.503 190.478C244.799 209.855 264.092 223.767 286.383 229.331C308.675 234.895 332.256 231.685 352.242 220.367C372.227 209.048 387.084 190.488 393.734 168.532C400.384 146.577 398.317 122.909 387.962 102.433H387.94ZM338.934 205.231C326.406 211.404 312.326 213.73 298.474 211.915C284.622 210.1 271.62 204.226 261.113 195.035C250.605 185.845 243.063 173.75 239.441 160.281C235.819 146.812 236.279 132.573 240.764 119.365C245.248 106.157 253.555 94.5723 264.635 86.0769C275.714 77.5814 289.068 72.5561 303.009 71.6365C316.949 70.7168 330.85 73.944 342.953 80.9102C355.056 87.8763 364.818 98.2684 371.005 110.773C375.113 119.077 377.543 128.107 378.155 137.349C378.767 146.59 377.549 155.862 374.571 164.633C371.593 173.405 366.913 181.505 360.798 188.471C354.683 195.437 347.254 201.132 338.934 205.231Z" fill="#222222"/>
<path d="M170.324 120.522C170.324 121.157 170.658 121.673 171.078 121.673C171.499 121.673 171.833 121.157 171.833 120.522C171.833 119.887 171.499 119.37 171.078 119.37C170.658 119.37 170.324 119.93 170.324 120.522Z" fill="#222222"/>
<path d="M170.625 121.673C171.389 123.622 172.415 125.458 173.676 127.129C173.24 127.44 172.741 127.653 172.214 127.751C171.687 127.85 171.145 127.832 170.625 127.699V121.673Z" fill="#DE5753"/>
<path d="M168.093 116.981C168.032 116.982 167.973 116.968 167.919 116.942C167.865 116.916 167.817 116.878 167.78 116.831C167.724 116.749 167.701 116.648 167.717 116.55C167.734 116.452 167.787 116.364 167.866 116.304C168.341 115.944 168.896 115.705 169.483 115.605C170.071 115.506 170.674 115.55 171.24 115.733C171.291 115.747 171.339 115.771 171.38 115.805C171.42 115.838 171.454 115.879 171.478 115.926C171.502 115.973 171.515 116.025 171.518 116.077C171.521 116.13 171.512 116.183 171.493 116.232C171.474 116.281 171.445 116.326 171.408 116.363C171.371 116.4 171.326 116.429 171.277 116.448C171.228 116.467 171.175 116.475 171.122 116.473C171.069 116.47 171.018 116.456 170.971 116.433C170.521 116.295 170.044 116.267 169.58 116.351C169.117 116.435 168.681 116.629 168.308 116.917C168.244 116.959 168.169 116.982 168.093 116.981Z" fill="#222222"/>
<path d="M148.549 125.31C149.627 131.089 150.813 141.688 146.759 145.552C146.759 145.552 148.344 151.416 159.113 151.416C170.971 151.416 164.762 145.552 164.762 145.552C158.294 144.002 158.477 139.224 159.598 134.726L148.549 125.31Z" fill="#E4897B"/>
<path d="M141.919 148.597C143.201 146.606 141.045 141.775 141.045 141.775C141.045 141.775 160.104 136.986 167.898 144.336C169.515 145.853 167.726 148.091 167.726 148.091L141.919 148.597Z" fill="#7E57C2"/>
<path opacity="0.1" d="M141.919 148.597C143.201 146.606 141.045 141.775 141.045 141.775C141.045 141.775 160.104 136.986 167.898 144.336C169.515 145.853 167.726 148.091 167.726 148.091L141.919 148.597Z" fill="#222222"/>
<path d="M110.387 368.151C109.385 368.151 107.779 366.483 107.304 365.859C107.284 365.829 107.273 365.793 107.273 365.757C107.273 365.72 107.284 365.685 107.304 365.655C107.322 365.624 107.347 365.6 107.377 365.582C107.408 365.565 107.442 365.557 107.477 365.558C107.595 365.558 110.236 365.794 110.959 366.731C111.037 366.829 111.093 366.944 111.123 367.067C111.153 367.189 111.156 367.317 111.131 367.441C111.122 367.601 111.063 367.754 110.962 367.88C110.862 368.005 110.725 368.096 110.571 368.14L110.387 368.151ZM107.886 365.999C108.673 366.903 109.935 367.925 110.474 367.796C110.474 367.796 110.689 367.742 110.754 367.398C110.768 367.326 110.766 367.252 110.747 367.181C110.728 367.11 110.694 367.044 110.646 366.989C109.847 366.385 108.887 366.033 107.886 365.977V365.999Z" fill="#7E57C2"/>
<path d="M108.005 365.977C107.811 365.997 107.616 365.997 107.423 365.977C107.388 365.975 107.356 365.962 107.329 365.941C107.302 365.92 107.282 365.891 107.272 365.859C107.256 365.829 107.249 365.796 107.249 365.762C107.249 365.728 107.256 365.695 107.272 365.665C107.347 365.601 108.932 363.954 110.128 363.954C110.271 363.951 110.414 363.978 110.546 364.034C110.678 364.089 110.796 364.172 110.894 364.277C111.001 364.367 111.074 364.49 111.102 364.627C111.129 364.764 111.109 364.906 111.045 365.03C110.732 365.633 109.083 365.977 108.005 365.977ZM107.864 365.601C108.942 365.601 110.506 365.267 110.764 364.794C110.764 364.794 110.84 364.654 110.667 364.482C110.605 364.413 110.528 364.36 110.442 364.325C110.356 364.289 110.264 364.273 110.171 364.277C109.288 364.48 108.485 364.94 107.864 365.601Z" fill="#7E57C2"/>
<path d="M181.525 392.578C180.708 392.572 179.893 392.497 179.088 392.352C179.049 392.345 179.013 392.323 178.987 392.292C178.961 392.26 178.948 392.221 178.948 392.18C178.942 392.143 178.947 392.105 178.963 392.07C178.978 392.036 179.003 392.007 179.035 391.986C179.153 391.922 181.913 390.34 183.239 390.706C183.362 390.733 183.478 390.786 183.58 390.86C183.682 390.934 183.767 391.028 183.832 391.136C183.916 391.256 183.961 391.399 183.961 391.545C183.961 391.691 183.916 391.834 183.832 391.954C183.519 392.438 182.538 392.578 181.525 392.578ZM179.703 392.072C181.169 392.288 183.174 392.277 183.541 391.76C183.594 391.696 183.638 391.577 183.541 391.351C183.458 391.217 183.327 391.121 183.174 391.082C182.333 390.867 180.662 391.577 179.703 392.072Z" fill="#7E57C2"/>
<path d="M179.131 392.363C179.096 392.373 179.059 392.373 179.024 392.363C178.994 392.344 178.97 392.316 178.957 392.283C178.943 392.251 178.94 392.215 178.948 392.18C179.021 391.06 179.452 389.993 180.177 389.135C180.324 389.008 180.496 388.915 180.682 388.861C180.868 388.807 181.063 388.794 181.255 388.823C181.772 388.823 181.923 389.135 181.956 389.339C182.096 390.232 180.209 391.943 179.25 392.374L179.131 392.363ZM181.061 389.135C180.824 389.133 180.594 389.217 180.414 389.371C179.805 390.051 179.427 390.907 179.336 391.814C180.306 391.222 181.6 389.888 181.492 389.35C181.492 389.35 181.492 389.167 181.126 389.135H181.061Z" fill="#7E57C2"/>
<path d="M170.421 392.169H178.345L179.132 373.865H171.208L170.421 392.169Z" fill="#E4897B"/>
<path d="M99.8657 360.748L106.485 365.073L121.102 352.752L114.473 348.416L99.8657 360.748Z" fill="#E4897B"/>
<path d="M107.574 364.664L100.696 359.037C100.574 358.937 100.422 358.882 100.265 358.882C100.108 358.882 99.9551 358.937 99.8336 359.037L94.1633 363.481C94.0263 363.59 93.9157 363.728 93.8397 363.885C93.7636 364.043 93.7241 364.215 93.7241 364.39C93.7241 364.565 93.7636 364.737 93.8397 364.895C93.9157 365.052 94.0263 365.19 94.1633 365.299C96.5996 367.226 97.8824 368.043 100.912 370.518C102.777 372.036 107.38 376.684 109.978 378.783C112.576 380.881 114.958 378.621 114.096 377.534C110.226 372.638 108.706 368.452 108.264 365.859C108.187 365.39 107.942 364.965 107.574 364.664Z" fill="#222222"/>
<path d="M178.291 391.255H169.667C169.509 391.255 169.357 391.309 169.234 391.406C169.111 391.504 169.024 391.64 168.988 391.793L167.424 398.82C167.385 398.99 167.385 399.167 167.425 399.337C167.464 399.507 167.542 399.666 167.652 399.802C167.762 399.938 167.902 400.047 168.06 400.121C168.219 400.195 168.392 400.232 168.567 400.229C171.683 400.175 176.189 399.992 180.113 399.992C184.694 399.992 188.661 400.24 194.03 400.24C197.264 400.24 198.191 396.958 196.822 396.667C190.634 395.311 185.567 395.172 180.22 391.868C179.647 391.489 178.978 391.276 178.291 391.255Z" fill="#222222"/>
<path d="M131.15 147.908C124.283 151.136 120.37 172.766 120.37 172.766L137.154 179.448C139.611 173.46 141.597 167.29 143.094 160.993C145.401 151.029 138.178 144.572 131.15 147.908Z" fill="#222222"/>
<path d="M140.054 160.1C135.904 164.297 134.006 172.518 133.176 177.866L137.197 179.47C139.584 173.651 141.53 167.662 143.018 161.553C142.663 159.272 141.779 158.357 140.054 160.1Z" fill="#203048"/>
<path d="M176.943 147.758C176.943 147.758 185.373 157.27 177.418 216.089H135.063C134.772 209.633 138.857 177.942 132.583 147.359C137.264 146.454 142 145.857 146.759 145.573C152.755 145.218 158.766 145.218 164.762 145.573C168.873 145.986 172.945 146.716 176.943 147.758Z" fill="#222222"/>
<path d="M180.813 170.592L173.676 158.314C172.299 164.043 171.736 169.937 172.005 175.822C172.199 180.04 176.069 195.665 179.551 197.946C180.475 188.858 180.896 179.726 180.813 170.592Z" fill="#203048"/>
<path d="M181.804 156.162C182.882 161.392 183.96 166.75 185.114 172.002C186.267 177.253 187.464 182.526 188.855 187.616C189.21 188.875 189.545 190.166 189.933 191.371L190.224 192.297L190.364 192.759V192.706C190.288 192.609 190.202 192.598 190.267 192.706C190.71 193.189 191.276 193.542 191.905 193.728C192.924 194.106 193.974 194.398 195.042 194.6C200.139 195.406 205.299 195.741 210.458 195.6L211.482 201.454C210.037 201.917 208.69 202.251 207.267 202.584C205.844 202.918 204.443 203.198 203.009 203.413C200.042 203.906 197.035 204.108 194.029 204.015C192.358 203.97 190.697 203.754 189.07 203.37C187.002 202.918 185.059 202.018 183.378 200.733C182.281 199.849 181.375 198.75 180.716 197.505C180.543 197.182 180.392 196.816 180.252 196.504L180.058 195.998L179.659 194.922C179.109 193.556 178.657 192.211 178.161 190.866C176.339 185.485 174.819 180.051 173.482 174.627C172.146 169.204 170.992 163.791 170.033 158.228L181.804 156.162Z" fill="#E4897B"/>
<path d="M166.368 153.525C164.137 160.746 173.181 182.278 173.181 182.278L191.195 177.759C191.195 177.759 190.505 166.568 186.398 157.69C180.21 144.303 169.042 144.863 166.368 153.525Z" fill="#222222"/>
<path d="M210.308 195.6L219.277 195.374L214.965 204.693C214.965 204.693 211.31 205.178 208.313 200.26L205.155 196.494L208.788 195.773C209.288 195.667 209.797 195.61 210.308 195.6Z" fill="#E4897B"/>
<path d="M224.936 197.107L219.805 204.833L214.964 204.693L219.276 195.374L224.936 197.107Z" fill="#E4897B"/>
<path d="M179.131 373.865L178.722 383.302H170.798L171.208 373.865H179.131Z" fill="#CE6F64"/>
<path d="M114.473 348.416L121.103 352.752L113.557 359.101L106.938 354.775L114.473 348.416Z" fill="#CE6F64"/>
<path d="M149.045 119.155C149.519 126.978 149.4 131.595 153.357 135.609C159.307 141.667 168.999 138.084 170.874 130.228C172.567 123.191 171.51 111.569 163.835 108.448C162.141 107.766 160.302 107.524 158.489 107.746C156.676 107.967 154.95 108.645 153.471 109.716C151.993 110.786 150.811 112.214 150.037 113.865C149.262 115.516 148.921 117.336 149.045 119.155Z" fill="#E4897B"/>
<path d="M139.817 117.778C141.768 124.912 146.36 133.134 152.3 133.661C159.674 134.307 163.005 126.699 163.975 118.843C168.395 115.819 166.077 112.494 170.508 112.075C176.2 111.537 174.378 101.142 166.886 99.4737C166.886 99.4737 169.397 104.155 164.126 101.787C159.113 99.409 153.543 98.4451 148.021 99.0002C148.021 99.0002 154.747 102.358 148.171 103.853C141.596 105.349 139.634 109.395 142.663 111.838C142.663 111.849 138.534 113.086 139.817 117.778Z" fill="#222222"/>
<path d="M159.479 120.457C159.624 122.402 160.409 124.244 161.711 125.698C163.436 127.603 165.236 126.419 165.538 124.105C165.818 122.028 165.247 118.531 163.134 117.477C161.021 116.422 159.339 118.111 159.479 120.457Z" fill="#E4897B"/>
<path d="M162.39 216.089C162.39 216.089 170.109 271.884 164.029 294.245C154.391 329.649 117.545 359.532 117.545 359.532L105.051 351.353C105.051 351.353 136.432 326.119 140.27 296.473C143.719 269.861 135.063 237.675 135.063 216.078L162.39 216.089Z" fill="#7E57C2"/>
<path opacity="0.1" d="M162.39 216.089C162.39 216.089 170.109 271.884 164.029 294.245C154.391 329.649 117.545 359.532 117.545 359.532L105.051 351.353C105.051 351.353 136.432 326.119 140.27 296.473C143.719 269.861 135.063 237.675 135.063 216.078L162.39 216.089Z" fill="#222222"/>
<path d="M165.581 247.984C163.526 245.634 161.264 243.474 158.822 241.528C160.137 259.638 161.215 286.465 160.018 305.523C161.627 301.869 162.967 298.104 164.029 294.256C166.993 283.334 166.68 264.47 165.581 247.984Z" fill="#7E57C2"/>
<path opacity="0.3" d="M165.581 247.984C163.526 245.634 161.264 243.474 158.822 241.528C160.137 259.638 161.215 286.465 160.018 305.523C161.627 301.869 162.967 298.104 164.029 294.256C166.993 283.334 166.68 264.47 165.581 247.984Z" fill="#222222"/>
<path d="M122.579 356.744C122.633 356.744 117.739 359.973 117.739 359.973L104.091 351.041L108.403 347.479L122.579 356.744Z" fill="#7E57C2"/>
<path opacity="0.3" d="M122.579 356.744C122.633 356.744 117.739 359.973 117.739 359.973L104.091 351.041L108.403 347.479L122.579 356.744Z" fill="#222222"/>
<path d="M177.418 216.089C177.418 216.089 189.34 266.558 190.181 290.673C191.13 317.704 181.676 381.473 181.676 381.473H168.255C168.255 381.473 166.605 317.209 166.012 292.588C165.355 265.74 149.573 216.089 149.573 216.089H177.418Z" fill="#7E57C2"/>
<path opacity="0.1" d="M177.418 216.089C177.418 216.089 189.34 266.558 190.181 290.673C191.13 317.704 181.676 381.473 181.676 381.473H168.255C168.255 381.473 166.605 317.209 166.012 292.588C165.355 265.74 149.573 216.089 149.573 216.089H177.418Z" fill="#222222"/>
<path d="M184.251 376.146C184.316 376.146 183.497 381.699 183.497 381.699H167.176L166.734 376.738L184.251 376.146Z" fill="#7E57C2"/>
<path opacity="0.3" d="M184.251 376.146C184.316 376.146 183.497 381.699 183.497 381.699H167.176L166.734 376.738L184.251 376.146Z" fill="#222222"/>
<path d="M383.769 167.59C384.686 168.451 385.408 169.182 386.162 170C386.917 170.818 387.629 171.614 388.318 172.443C389.72 174.089 391.035 175.822 392.307 177.565C394.848 181.062 397.108 184.754 399.066 188.606L399.465 189.391C399.66 189.772 399.822 190.168 399.95 190.575C400.211 191.362 400.37 192.18 400.424 193.007C400.495 194.466 400.294 195.925 399.832 197.311C399.044 199.614 397.874 201.767 396.371 203.682C393.662 207.154 390.468 210.22 386.885 212.786L384.201 209.708C385.462 208.234 386.777 206.652 387.952 205.07C389.148 203.537 390.229 201.919 391.186 200.228C392.08 198.752 392.742 197.148 393.148 195.471C393.287 194.872 393.313 194.251 393.223 193.642C393.185 193.437 393.12 193.238 393.029 193.05C392.989 192.968 392.942 192.888 392.889 192.813L392.544 192.232C390.465 188.848 388.209 185.576 385.785 182.429C384.589 180.847 383.306 179.33 382.012 177.834C381.376 177.081 380.719 176.349 380.061 175.617C379.403 174.886 378.692 174.154 378.121 173.584L383.769 167.59Z" fill="#E4897B"/>
<path d="M385.236 208.804L377.183 207.491L381.398 214.529C381.398 214.529 386.583 214.346 388.06 211.3L385.236 208.804Z" fill="#E4897B"/>
<path d="M371.232 210.741L375.07 216.455L381.397 214.529L377.183 207.491L371.232 210.741Z" fill="#E4897B"/>
<path d="M384.847 392.481C384.3 392.528 383.753 392.379 383.306 392.062C383.171 391.934 383.071 391.774 383.016 391.597C382.961 391.42 382.953 391.231 382.993 391.05C383.001 390.935 383.04 390.823 383.107 390.729C383.173 390.634 383.264 390.559 383.37 390.512C384.308 390.092 386.766 391.663 387.046 391.846C387.078 391.866 387.103 391.896 387.117 391.931C387.13 391.966 387.132 392.004 387.122 392.04C387.118 392.077 387.102 392.111 387.077 392.139C387.051 392.166 387.018 392.184 386.982 392.191C386.283 392.368 385.567 392.465 384.847 392.481ZM383.769 390.813C383.691 390.801 383.611 390.801 383.532 390.813C383.485 390.835 383.444 390.87 383.416 390.914C383.387 390.958 383.372 391.009 383.37 391.061C383.342 391.181 383.345 391.306 383.379 391.425C383.413 391.544 383.477 391.652 383.564 391.739C383.974 392.105 385.031 392.158 386.443 391.879C385.634 391.345 384.724 390.983 383.769 390.813Z" fill="#7E57C2"/>
<path d="M387.003 392.18H386.906C386.141 391.739 384.664 390.028 384.847 389.092C384.882 388.944 384.964 388.812 385.081 388.715C385.197 388.618 385.342 388.561 385.494 388.554C385.64 388.533 385.788 388.545 385.928 388.59C386.068 388.635 386.196 388.71 386.302 388.812C387.186 389.587 387.197 391.911 387.197 392.04C387.195 392.073 387.185 392.105 387.168 392.133C387.152 392.161 387.128 392.184 387.1 392.202L387.003 392.18ZM385.623 388.952H385.537C385.3 388.952 385.246 389.081 385.224 389.178C385.117 389.727 386.033 391.039 386.798 391.653C386.817 390.75 386.558 389.863 386.054 389.113C385.99 389.053 385.913 389.008 385.83 388.98C385.746 388.952 385.657 388.942 385.569 388.952H385.623Z" fill="#7E57C2"/>
<path d="M348.108 392.481C347.42 392.547 346.73 392.372 346.157 391.986C346.028 391.872 345.928 391.728 345.866 391.567C345.804 391.406 345.782 391.232 345.801 391.061C345.808 390.956 345.842 390.855 345.898 390.767C345.955 390.678 346.032 390.605 346.125 390.555C347.127 389.996 350.34 391.631 350.706 391.836C350.74 391.857 350.767 391.888 350.784 391.924C350.801 391.96 350.808 392 350.803 392.04C350.797 392.078 350.779 392.113 350.752 392.14C350.725 392.167 350.69 392.185 350.652 392.191C349.815 392.368 348.964 392.465 348.108 392.481ZM346.674 390.813C346.551 390.805 346.428 390.831 346.319 390.889C346.28 390.907 346.247 390.936 346.224 390.972C346.201 391.008 346.189 391.05 346.189 391.093C346.173 391.205 346.184 391.32 346.221 391.426C346.259 391.533 346.322 391.629 346.405 391.707C346.901 392.148 348.227 392.223 350.016 391.922C348.973 391.367 347.843 390.992 346.674 390.813Z" fill="#7E57C2"/>
<path d="M350.619 392.18H350.533C349.574 391.75 347.666 390.028 347.817 389.092C347.817 388.876 348.011 388.607 348.539 388.554C348.732 388.533 348.927 388.552 349.112 388.609C349.298 388.666 349.469 388.761 349.617 388.887C350.63 389.726 350.824 391.9 350.824 391.997C350.828 392.03 350.824 392.063 350.81 392.094C350.797 392.124 350.776 392.15 350.749 392.169C350.708 392.187 350.663 392.19 350.619 392.18ZM348.69 388.952H348.571C348.226 388.952 348.205 389.124 348.194 389.167C348.108 389.716 349.401 391.082 350.35 391.674C350.256 390.754 349.88 389.886 349.272 389.188C349.108 389.049 348.904 388.966 348.69 388.952Z" fill="#7E57C2"/>
<path d="M363.361 142.85C363.049 147.714 362.208 157.593 365.949 160.326C365.949 160.326 365.269 165.308 356.441 166.471C346.739 167.73 351.169 162.263 351.169 162.263C356.311 160.305 355.654 156.398 354.252 152.826L363.361 142.85Z" fill="#E4897B"/>
<path d="M343.279 134.253C343.226 134.253 343.173 134.241 343.125 134.219C343.077 134.197 343.034 134.164 342.999 134.123C342.691 133.758 342.301 133.471 341.861 133.284C341.421 133.097 340.943 133.016 340.466 133.047C340.415 133.057 340.364 133.055 340.314 133.044C340.264 133.032 340.217 133.011 340.175 132.981C340.134 132.951 340.099 132.912 340.073 132.868C340.047 132.824 340.03 132.775 340.024 132.724C340.012 132.623 340.04 132.521 340.102 132.441C340.165 132.36 340.257 132.307 340.358 132.294C340.967 132.243 341.579 132.339 342.142 132.575C342.705 132.811 343.203 133.18 343.592 133.65C343.639 133.706 343.669 133.774 343.678 133.846C343.688 133.919 343.677 133.992 343.646 134.059C343.616 134.125 343.567 134.181 343.506 134.221C343.445 134.261 343.374 134.283 343.301 134.285L343.279 134.253Z" fill="#222222"/>
<path d="M341.597 139.02C341.214 140.563 340.623 142.047 339.839 143.432C340.199 143.625 340.597 143.737 341.005 143.759C341.413 143.781 341.821 143.714 342.2 143.561L341.597 139.02Z" fill="#DE5753"/>
<path d="M342.029 137.836C342.115 138.482 341.845 139.041 341.425 139.106C341.005 139.17 340.584 138.675 340.509 138.03C340.433 137.384 340.692 136.824 341.112 136.771C341.533 136.717 341.953 137.147 342.029 137.836Z" fill="#222222"/>
<path d="M341.307 136.781L339.701 136.534C339.701 136.534 340.649 137.642 341.307 136.781Z" fill="#222222"/>
<path d="M359.502 392.008H351.417L350.878 373.338H358.963L359.502 392.008Z" fill="#E4897B"/>
<path d="M396.21 392.008H388.125L385.527 373.338H393.612L396.21 392.008Z" fill="#E4897B"/>
<path d="M387.627 391.104H396.704C396.859 391.102 397.009 391.157 397.126 391.258C397.243 391.359 397.319 391.5 397.34 391.653L398.418 398.83C398.438 399.011 398.419 399.194 398.363 399.367C398.307 399.541 398.214 399.7 398.092 399.835C397.97 399.97 397.821 400.078 397.654 400.151C397.487 400.225 397.307 400.262 397.124 400.261C393.966 400.207 392.435 400.025 388.446 400.025C385.988 400.025 382.399 400.272 379.014 400.272C375.629 400.272 375.446 396.925 376.858 396.624C383.186 395.268 384.188 393.396 386.312 391.599C386.683 391.292 387.146 391.118 387.627 391.104Z" fill="#222222"/>
<path d="M351.149 391.104H360.215C360.371 391.102 360.522 391.157 360.641 391.257C360.76 391.358 360.838 391.499 360.862 391.653L361.94 398.83C361.959 399.011 361.941 399.194 361.885 399.367C361.828 399.541 361.736 399.7 361.614 399.835C361.492 399.97 361.343 400.078 361.176 400.151C361.009 400.225 360.828 400.262 360.646 400.261C357.488 400.208 355.957 400.025 351.968 400.025C349.51 400.025 344.422 400.272 341.037 400.272C337.652 400.272 337.469 396.925 338.881 396.624C345.209 395.268 347.699 393.396 349.834 391.599C350.204 391.292 350.667 391.118 351.149 391.104Z" fill="#222222"/>
<path d="M350.878 373.338L351.159 382.969H359.244L358.963 373.338H350.878Z" fill="#CE6F64"/>
<path d="M393.612 373.338H385.527L386.874 382.969H394.949L393.612 373.338Z" fill="#CE6F64"/>
<path d="M363.469 132.778C364.019 140.763 364.418 144.131 360.947 148.726C355.718 155.624 345.779 154.558 342.847 146.897C340.206 139.999 339.753 128.108 347.105 123.933C348.722 123.008 350.55 122.51 352.414 122.488C354.278 122.465 356.117 122.919 357.756 123.805C359.395 124.691 360.78 125.98 361.78 127.551C362.78 129.121 363.361 130.921 363.469 132.778Z" fill="#E4897B"/>
<path d="M368.127 140.193C372.611 142.689 375.942 136.534 375.942 136.534C375.942 136.534 367.9 137.405 368.623 132.628C369.571 126.29 365.022 118.585 353.617 119.575C352.981 119.629 352.377 119.704 351.784 119.801C350.59 119.236 349.24 119.09 347.953 119.387C346.665 119.684 345.516 120.406 344.691 121.436C341.457 121.705 337.091 125.558 340.056 130.648C340.264 130.063 340.586 129.525 341.004 129.066C341.252 132.047 343.861 136.781 347.117 137.093C347.817 141.172 345.101 145.896 346.039 150.157C347.429 156.302 357.81 157.69 357.81 157.69C357.452 156.922 357.319 156.07 357.426 155.23C357.533 154.39 357.875 153.598 358.414 152.944C365.464 156.172 370.11 153.02 370.11 153.02C365.302 151.233 366.758 148.048 366.758 148.048C368.418 148.784 370.299 148.848 372.006 148.228C373.713 147.608 375.112 146.352 375.91 144.723C374.313 144.799 372.728 144.411 371.347 143.607C369.966 142.803 368.847 141.617 368.127 140.193Z" fill="#222222"/>
<path d="M349.93 138.32C349.949 139.086 349.816 139.849 349.539 140.564C349.261 141.278 348.845 141.931 348.313 142.485C346.89 143.959 345.144 142.926 344.67 141.043C344.249 139.342 344.486 136.534 346.34 135.759C346.749 135.599 347.19 135.543 347.625 135.597C348.06 135.651 348.475 135.812 348.832 136.067C349.189 136.321 349.476 136.661 349.668 137.054C349.86 137.448 349.95 137.883 349.93 138.32Z" fill="#E4897B"/>
<path d="M356.646 212.71C356.646 212.71 358.694 265.826 363.567 297.011C367.491 322.213 384.922 381.096 384.922 381.096H395.939C395.939 381.096 386.852 324.225 384.857 299.314C379.812 236.266 392.91 222.728 380.545 209.6L356.646 212.71Z" fill="#222222"/>
<path d="M365.851 229.508C365.851 229.508 360.871 228.647 357.96 238.117C359.038 256.055 360.882 279.858 363.566 297.011C364.159 300.831 365.064 305.437 366.175 310.483C364.073 280.181 365.851 229.508 365.851 229.508Z" fill="#161F33"/>
<path d="M348.055 213.829C348.055 213.829 338.978 272.594 339.506 297.183C340.056 322.762 349.445 381.118 349.445 381.118H360.365C360.365 381.118 358.641 324.279 359.6 299.163C360.678 271.777 371.878 210.741 371.878 210.741L348.055 213.829Z" fill="#222222"/>
<path d="M397.534 381.613H382.884L381.742 376.706L397.427 376.813L397.534 381.613Z" fill="#7E57C2"/>
<path opacity="0.2" d="M397.534 381.613H382.884L381.742 376.706L397.427 376.813L397.534 381.613Z" fill="#222222"/>
<path d="M379.996 160.337C384.211 160.746 390.614 172.701 390.614 172.701L379.974 180.847C379.974 180.847 371.167 173.132 372.213 168.795C373.301 164.286 375.953 159.96 379.996 160.337Z" fill="#7E57C2"/>
<path opacity="0.1" d="M379.996 160.337C384.211 160.746 390.614 172.701 390.614 172.701L379.974 180.847C379.974 180.847 371.167 173.132 372.213 168.795C373.301 164.286 375.953 159.96 379.996 160.337Z" fill="#222222"/>
<path d="M376.815 165.481C375.74 165.192 374.628 165.068 373.516 165.115C372.95 166.291 372.513 167.525 372.212 168.795C371.134 173.099 379.973 180.847 379.973 180.847L380.76 180.245L376.815 165.481Z" fill="#7E57C2"/>
<path opacity="0.3" d="M376.815 165.481C375.74 165.192 374.628 165.068 373.516 165.115C372.95 166.291 372.513 167.525 372.212 168.795C371.134 173.099 379.973 180.847 379.973 180.847L380.76 180.245L376.815 165.481Z" fill="#222222"/>
<path d="M344.443 176.963C341.371 184.721 338.137 192.609 335.561 200.389C335.388 200.884 335.248 201.357 335.097 201.842L334.731 203.036C334.63 203.388 334.63 203.76 334.731 204.112C335.339 205.458 336.304 206.611 337.523 207.448C340.746 209.756 344.257 211.634 347.968 213.033L346.998 216.993C342.433 216.392 338.018 214.955 333.976 212.753C331.488 211.427 329.462 209.378 328.165 206.878C327.421 205.28 327.162 203.499 327.422 201.756C327.446 201.542 327.482 201.33 327.529 201.121L327.637 200.669L327.821 199.851C327.95 199.302 328.079 198.775 328.219 198.237C329.297 193.932 330.677 189.843 332.133 185.786C333.588 181.73 335.108 177.727 336.822 173.734L344.443 176.963Z" fill="#E4897B"/>
<path d="M337.9 166.072C337.9 166.072 334.256 167.913 348.054 213.829L380.588 209.589C378.303 196.44 377.225 188.294 379.996 160.337C375.33 160.003 370.647 160.003 365.981 160.337C361.015 160.625 356.075 161.273 351.202 162.274C344.96 163.662 337.9 166.072 337.9 166.072Z" fill="#7E57C2"/>
<path opacity="0.1" d="M337.9 166.072C337.9 166.072 334.256 167.913 348.054 213.829L380.588 209.589C378.303 196.44 377.225 188.294 379.996 160.337C375.33 160.003 370.647 160.003 365.981 160.337C361.015 160.625 356.075 161.273 351.202 162.274C344.96 163.662 337.9 166.072 337.9 166.072Z" fill="#222222"/>
<path d="M380.827 207.62L382.692 210.321C382.832 210.536 382.595 210.795 382.228 210.848L348.109 215.303C347.818 215.303 347.549 215.228 347.506 215.045L346.837 212.172C346.783 211.978 347.021 211.774 347.344 211.731L380.288 207.426C380.387 207.411 380.488 207.42 380.582 207.454C380.676 207.488 380.76 207.545 380.827 207.62Z" fill="#7E57C2"/>
<path opacity="0.2" d="M380.827 207.62L382.692 210.321C382.832 210.536 382.595 210.795 382.228 210.848L348.109 215.303C347.818 215.303 347.549 215.228 347.506 215.045L346.837 212.172C346.783 211.978 347.021 211.774 347.344 211.731L380.288 207.426C380.387 207.411 380.488 207.42 380.582 207.454C380.676 207.488 380.76 207.545 380.827 207.62Z" fill="#222222"/>
<path d="M376.88 211.871L377.764 211.752C377.937 211.752 378.055 211.623 378.034 211.516L377.128 207.792C377.094 207.729 377.039 207.679 376.972 207.652C376.905 207.624 376.831 207.621 376.762 207.642L375.878 207.749C375.695 207.749 375.576 207.878 375.608 207.997L376.514 211.709C376.535 211.828 376.708 211.892 376.88 211.871Z" fill="#222222"/>
<path d="M355.493 214.626L356.377 214.507C356.55 214.507 356.679 214.378 356.647 214.27L355.741 210.547C355.706 210.484 355.651 210.435 355.585 210.406C355.519 210.376 355.445 210.37 355.375 210.386L354.491 210.504C354.318 210.504 354.189 210.633 354.221 210.741L355.127 214.464C355.148 214.626 355.321 214.69 355.493 214.626Z" fill="#222222"/>
<path d="M339.419 181.654C340.314 185.808 341.575 191.07 343.419 197.731L343.818 180.847L339.419 181.654Z" fill="#7E57C2"/>
<path opacity="0.3" d="M339.419 181.654C340.314 185.808 341.575 191.07 343.419 197.731L343.818 180.847L339.419 181.654Z" fill="#222222"/>
<path d="M337.899 166.072C333.857 167.697 330.353 181.504 330.353 181.504L344.259 188.261C344.259 188.261 350.975 171.378 347.968 168.085C344.96 164.792 342.556 164.211 337.899 166.072Z" fill="#7E57C2"/>
<path opacity="0.1" d="M337.899 166.072C333.857 167.697 330.353 181.504 330.353 181.504L344.259 188.261C344.259 188.261 350.975 171.378 347.968 168.085C344.96 164.792 342.556 164.211 337.899 166.072Z" fill="#222222"/>
<path d="M362.23 381.613H347.58L346.437 376.706L362.747 376.813L362.23 381.613Z" fill="#7E57C2"/>
<path opacity="0.2" d="M362.23 381.613H347.58L346.437 376.706L362.747 376.813L362.23 381.613Z" fill="#222222"/>
<path d="M348.194 211.699L347.019 211.214C346.73 211.097 346.416 211.058 346.107 211.102C345.798 211.145 345.506 211.269 345.261 211.461C345.016 211.654 344.826 211.907 344.711 212.197C344.595 212.486 344.559 212.8 344.605 213.108L345.456 218.715C345.497 218.995 345.6 219.263 345.757 219.499C345.915 219.736 346.122 219.934 346.366 220.08C346.609 220.226 346.882 220.317 347.165 220.345C347.447 220.373 347.733 220.338 348 220.243C348.428 220.088 348.828 219.866 349.186 219.586C349.576 219.264 349.884 218.854 350.087 218.39C350.289 217.927 350.379 217.422 350.35 216.918L350.232 214.593C350.211 213.965 350.008 213.357 349.646 212.843C349.284 212.328 348.779 211.931 348.194 211.699Z" fill="#E4897B"/>
</svg>
